<?xml version="1.0" encoding="UTF-8"?>
<svg xmlns="http://www.w3.org/2000/svg" xmlns:xlink="http://www.w3.org/1999/xlink" width="100%" height="100%" viewBox="0 0 720 720" version="1.1">
  <g id="spiro_5_4_1_87631">
    <path style=" stroke:none;fill-rule:evenodd;fill:rgb(63.921569%,0%,100%);fill-opacity:1;" d="M 693.332031 360 L 693.328125 359.214844 L 693.320313 358.429688 L 693.300781 357.644531 L 693.277344 356.859375 L 693.246094 356.074219 L 693.207031 355.289063 L 693.160156 354.503906 L 693.109375 353.71875 L 693.050781 352.933594 L 692.984375 352.152344 L 692.910156 351.367188 L 692.828125 350.585938 L 692.742188 349.800781 L 692.648438 349.019531 L 692.546875 348.238281 L 692.4375 347.457031 L 692.324219 346.679688 L 692.203125 345.898438 L 691.9375 344.34375 L 691.792969 343.566406 L 691.644531 342.789063 L 691.488281 342.015625 L 691.324219 341.238281 L 691.152344 340.464844 L 690.972656 339.695313 L 690.789063 338.921875 L 690.597656 338.152344 L 690.398438 337.382813 L 690.195313 336.613281 L 689.984375 335.847656 L 689.761719 335.082031 L 689.539063 334.320313 L 689.304688 333.554688 L 689.066406 332.792969 L 688.820313 332.035156 L 688.566406 331.277344 L 688.304688 330.519531 L 688.039063 329.761719 L 687.765625 329.007813 L 687.484375 328.257813 L 687.199219 327.507813 L 686.902344 326.757813 L 686.601563 326.011719 L 686.296875 325.265625 L 685.980469 324.519531 L 685.660156 323.777344 L 685.332031 323.039063 L 685 322.300781 L 684.65625 321.566406 L 684.308594 320.832031 L 683.957031 320.097656 L 683.59375 319.367188 L 683.226563 318.640625 L 682.851563 317.914063 L 682.472656 317.191406 L 682.085938 316.46875 L 681.691406 315.75 L 681.289063 315.035156 L 680.882813 314.320313 L 680.46875 313.609375 L 680.050781 312.898438 L 679.625 312.191406 L 679.191406 311.488281 L 678.75 310.785156 L 678.304688 310.085938 L 677.851563 309.386719 L 677.394531 308.695313 L 676.929688 308.003906 L 676.457031 307.3125 L 675.976563 306.628906 L 675.492188 305.945313 L 675.003906 305.265625 L 674.507813 304.585938 L 674.003906 303.910156 L 673.492188 303.238281 L 672.976563 302.570313 L 672.457031 301.90625 L 671.925781 301.242188 L 671.394531 300.582031 L 670.851563 299.925781 L 670.304688 299.273438 L 669.753906 298.625 L 669.195313 297.976563 L 668.628906 297.332031 L 668.058594 296.691406 L 667.480469 296.054688 L 666.894531 295.421875 L 666.308594 294.792969 L 665.710938 294.164063 L 665.109375 293.542969 L 664.503906 292.921875 L 663.890625 292.304688 L 663.269531 291.691406 L 662.644531 291.082031 L 662.015625 290.476563 L 661.378906 289.875 L 660.738281 289.277344 L 660.089844 288.683594 L 659.433594 288.09375 L 658.773438 287.507813 L 658.109375 286.921875 L 657.4375 286.34375 L 656.761719 285.769531 L 656.078125 285.199219 L 655.390625 284.632813 L 654.699219 284.066406 L 654 283.507813 L 653.292969 282.953125 L 652.585938 282.402344 L 651.867188 281.855469 L 651.148438 281.3125 L 650.421875 280.773438 L 649.6875 280.238281 L 648.953125 279.710938 L 648.210938 279.183594 L 647.460938 278.664063 L 646.707031 278.144531 L 645.949219 277.632813 L 645.1875 277.125 L 644.417969 276.621094 L 643.644531 276.121094 L 642.863281 275.625 L 642.078125 275.136719 L 641.289063 274.648438 L 640.496094 274.167969 L 639.695313 273.691406 L 638.890625 273.21875 L 638.082031 272.75 L 637.269531 272.289063 L 636.449219 271.828125 L 635.625 271.375 L 634.796875 270.929688 L 633.960938 270.484375 L 633.125 270.046875 L 632.28125 269.609375 L 631.433594 269.183594 L 630.578125 268.757813 L 629.722656 268.339844 L 628.859375 267.925781 L 627.992188 267.515625 L 627.121094 267.109375 L 626.246094 266.710938 L 625.367188 266.316406 L 624.480469 265.925781 L 623.59375 265.542969 L 622.699219 265.164063 L 621.800781 264.789063 L 620.898438 264.421875 L 619.992188 264.058594 L 619.082031 263.699219 L 618.164063 263.347656 L 617.246094 263 L 616.324219 262.65625 L 615.394531 262.320313 L 614.464844 261.988281 L 613.527344 261.660156 L 612.589844 261.339844 L 611.644531 261.023438 L 610.695313 260.714844 L 609.746094 260.410156 L 608.789063 260.109375 L 607.832031 259.816406 L 606.867188 259.527344 L 605.898438 259.246094 L 604.929688 258.96875 L 603.957031 258.699219 L 602.976563 258.433594 L 601.996094 258.171875 L 601.011719 257.917969 L 600.019531 257.667969 L 599.027344 257.425781 L 598.03125 257.1875 L 597.03125 256.957031 L 596.03125 256.730469 L 595.023438 256.507813 L 594.015625 256.292969 L 593 256.085938 L 591.984375 255.882813 L 590.964844 255.683594 L 589.945313 255.492188 L 588.917969 255.308594 L 587.890625 255.128906 L 586.855469 254.957031 L 585.820313 254.789063 L 584.785156 254.625 L 583.742188 254.46875 L 582.699219 254.320313 L 581.652344 254.175781 L 580.601563 254.039063 L 579.550781 253.90625 L 578.496094 253.78125 L 577.4375 253.660156 L 576.375 253.546875 L 575.3125 253.4375 L 574.246094 253.335938 L 573.179688 253.238281 L 572.109375 253.152344 L 571.035156 253.066406 L 569.957031 252.988281 L 568.878906 252.917969 L 567.800781 252.851563 L 566.714844 252.792969 L 565.628906 252.742188 L 564.542969 252.695313 L 563.453125 252.65625 L 562.359375 252.621094 L 561.265625 252.59375 L 560.171875 252.570313 L 559.070313 252.554688 L 557.972656 252.546875 L 556.867188 252.542969 L 555.765625 252.546875 L 554.65625 252.554688 L 553.550781 252.570313 L 552.441406 252.59375 L 551.328125 252.621094 L 550.214844 252.65625 L 549.097656 252.695313 L 546.863281 252.796875 L 545.742188 252.859375 L 544.621094 252.925781 L 543.5 252.996094 L 542.375 253.074219 L 541.25 253.160156 L 540.121094 253.253906 L 538.992188 253.351563 L 537.863281 253.457031 L 536.730469 253.566406 L 535.597656 253.683594 L 534.464844 253.808594 L 533.332031 253.9375 L 532.195313 254.074219 L 531.058594 254.214844 L 529.917969 254.367188 L 528.78125 254.523438 L 527.640625 254.683594 L 526.5 254.851563 L 525.359375 255.027344 L 524.21875 255.207031 L 523.074219 255.394531 L 521.929688 255.589844 L 520.785156 255.789063 L 519.640625 255.996094 L 518.496094 256.210938 L 517.347656 256.429688 L 516.203125 256.65625 L 515.054688 256.890625 L 513.90625 257.128906 L 512.761719 257.375 L 511.613281 257.625 L 509.316406 258.148438 L 508.164063 258.421875 L 507.015625 258.699219 L 505.867188 258.984375 L 504.71875 259.273438 L 503.570313 259.570313 L 502.417969 259.875 L 501.269531 260.183594 L 500.121094 260.5 L 498.972656 260.820313 L 497.824219 261.152344 L 496.671875 261.484375 L 495.523438 261.828125 L 494.375 262.175781 L 493.230469 262.53125 L 492.082031 262.890625 L 490.933594 263.257813 L 489.789063 263.632813 L 488.640625 264.011719 L 487.496094 264.398438 L 486.351563 264.789063 L 484.0625 265.59375 L 482.917969 266.007813 L 481.777344 266.425781 L 480.636719 266.847656 L 479.496094 267.277344 L 478.355469 267.714844 L 477.214844 268.160156 L 476.078125 268.609375 L 474.941406 269.0625 L 472.667969 269.992188 L 471.535156 270.46875 L 470.402344 270.949219 L 469.269531 271.4375 L 468.140625 271.929688 L 467.011719 272.429688 L 465.882813 272.933594 L 464.757813 273.445313 L 463.632813 273.960938 L 462.507813 274.488281 L 461.386719 275.015625 L 460.265625 275.550781 L 459.148438 276.09375 L 458.03125 276.644531 L 456.914063 277.199219 L 455.800781 277.757813 L 454.6875 278.324219 L 453.578125 278.898438 L 452.46875 279.476563 L 451.363281 280.058594 L 449.152344 281.246094 L 448.050781 281.851563 L 446.953125 282.457031 L 445.855469 283.074219 L 444.761719 283.695313 L 443.667969 284.320313 L 442.574219 284.953125 L 441.488281 285.589844 L 440.402344 286.234375 L 439.316406 286.882813 L 438.234375 287.539063 L 437.152344 288.203125 L 436.078125 288.867188 L 433.929688 290.21875 L 432.859375 290.90625 L 431.792969 291.59375 L 430.726563 292.292969 L 429.664063 292.992188 L 428.605469 293.699219 L 427.546875 294.414063 L 426.492188 295.132813 L 425.441406 295.855469 L 424.394531 296.585938 L 423.347656 297.320313 L 422.304688 298.0625 L 421.265625 298.808594 L 420.226563 299.558594 L 419.191406 300.316406 L 418.160156 301.082031 L 417.132813 301.847656 L 416.105469 302.621094 L 415.085938 303.402344 L 414.066406 304.1875 L 413.050781 304.976563 L 412.039063 305.769531 L 411.027344 306.570313 L 410.023438 307.375 L 409.019531 308.1875 L 408.019531 309.003906 L 407.023438 309.824219 L 406.03125 310.652344 L 405.042969 311.484375 L 404.054688 312.320313 L 402.09375 314.007813 L 400.148438 315.71875 L 399.179688 316.582031 L 398.21875 317.449219 L 397.257813 318.320313 L 396.300781 319.195313 L 395.347656 320.078125 L 394.398438 320.964844 L 393.453125 321.855469 L 392.511719 322.753906 L 391.574219 323.65625 L 390.640625 324.5625 L 389.710938 325.472656 L 388.785156 326.386719 L 386.949219 328.230469 L 386.035156 329.160156 L 385.125 330.09375 L 383.320313 331.976563 L 382.425781 332.925781 L 381.53125 333.878906 L 380.644531 334.832031 L 379.761719 335.792969 L 378.882813 336.761719 L 378.007813 337.730469 L 377.136719 338.703125 L 376.269531 339.683594 L 375.410156 340.664063 L 374.550781 341.652344 L 373.699219 342.644531 L 372.851563 343.636719 L 372.007813 344.636719 L 371.167969 345.640625 L 370.335938 346.648438 L 369.503906 347.660156 L 368.679688 348.675781 L 367.859375 349.695313 L 367.042969 350.71875 L 366.234375 351.746094 L 365.429688 352.777344 L 364.625 353.816406 L 363.832031 354.855469 L 363.039063 355.898438 L 362.253906 356.945313 L 361.472656 357.992188 L 360.695313 359.046875 L 359.921875 360.105469 L 359.15625 361.167969 L 358.394531 362.230469 L 357.636719 363.300781 L 356.886719 364.375 L 356.140625 365.449219 L 355.398438 366.527344 L 354.664063 367.609375 L 353.933594 368.695313 L 353.207031 369.785156 L 352.484375 370.878906 L 351.769531 371.972656 L 351.058594 373.074219 L 350.355469 374.175781 L 349.65625 375.28125 L 348.960938 376.386719 L 348.273438 377.5 L 347.589844 378.613281 L 346.910156 379.734375 L 346.238281 380.851563 L 345.570313 381.976563 L 344.910156 383.105469 L 344.253906 384.234375 L 343.601563 385.367188 L 342.957031 386.5 L 342.316406 387.636719 L 341.683594 388.777344 L 341.054688 389.921875 L 340.429688 391.066406 L 339.8125 392.214844 L 338.59375 394.519531 L 337.996094 395.675781 L 337.398438 396.835938 L 336.8125 397.996094 L 336.226563 399.160156 L 335.648438 400.328125 L 335.078125 401.496094 L 334.511719 402.664063 L 333.949219 403.835938 L 333.394531 405.011719 L 332.847656 406.191406 L 332.304688 407.367188 L 331.765625 408.550781 L 331.234375 409.734375 L 330.707031 410.917969 L 330.1875 412.105469 L 329.675781 413.292969 L 329.167969 414.484375 L 328.664063 415.679688 L 328.167969 416.871094 L 327.679688 418.070313 L 327.195313 419.265625 L 326.71875 420.46875 L 326.246094 421.667969 L 325.777344 422.871094 L 325.320313 424.078125 L 324.863281 425.28125 L 324.417969 426.488281 L 323.972656 427.699219 L 323.539063 428.910156 L 323.109375 430.121094 L 322.683594 431.335938 L 322.265625 432.550781 L 321.855469 433.765625 L 321.449219 434.980469 L 321.050781 436.199219 L 320.65625 437.417969 L 320.269531 438.640625 L 319.886719 439.859375 L 319.511719 441.082031 L 319.144531 442.304688 L 318.78125 443.53125 L 318.425781 444.753906 L 318.074219 445.980469 L 317.730469 447.207031 L 317.394531 448.433594 L 317.0625 449.660156 L 316.738281 450.890625 L 316.417969 452.121094 L 316.105469 453.351563 L 315.796875 454.582031 L 315.496094 455.8125 L 315.203125 457.042969 L 314.914063 458.273438 L 314.632813 459.507813 L 314.359375 460.738281 L 314.089844 461.972656 L 313.828125 463.203125 L 313.570313 464.4375 L 313.320313 465.671875 L 313.074219 466.90625 L 312.835938 468.136719 L 312.605469 469.371094 L 312.160156 471.839844 L 311.949219 473.074219 L 311.742188 474.304688 L 311.542969 475.539063 L 311.347656 476.773438 L 311.160156 478.003906 L 310.980469 479.238281 L 310.804688 480.46875 L 310.636719 481.703125 L 310.472656 482.933594 L 310.316406 484.164063 L 310.167969 485.394531 L 310.023438 486.625 L 309.886719 487.851563 L 309.757813 489.082031 L 309.632813 490.308594 L 309.515625 491.535156 L 309.402344 492.761719 L 309.296875 493.988281 L 309.195313 495.214844 L 309.101563 496.4375 L 309.015625 497.660156 L 308.9375 498.882813 L 308.859375 500.101563 L 308.792969 501.324219 L 308.730469 502.542969 L 308.675781 503.761719 L 308.625 504.976563 L 308.582031 506.191406 L 308.546875 507.40625 L 308.515625 508.617188 L 308.492188 509.828125 L 308.472656 511.039063 L 308.460938 512.25 L 308.453125 513.457031 L 308.453125 514.660156 L 308.460938 515.867188 L 308.472656 517.070313 L 308.492188 518.269531 L 308.519531 519.46875 L 308.550781 520.667969 L 308.585938 521.863281 L 308.628906 523.054688 L 308.679688 524.25 L 308.734375 525.4375 L 308.796875 526.628906 L 308.863281 527.8125 L 308.9375 529 L 309.019531 530.179688 L 309.105469 531.359375 L 309.199219 532.539063 L 309.296875 533.714844 L 309.398438 534.890625 L 309.511719 536.0625 L 309.625 537.230469 L 309.75 538.398438 L 309.878906 539.5625 L 310.011719 540.726563 L 310.152344 541.882813 L 310.296875 543.042969 L 310.449219 544.195313 L 310.609375 545.347656 L 310.773438 546.5 L 310.941406 547.644531 L 311.117188 548.789063 L 311.300781 549.933594 L 311.488281 551.070313 L 311.679688 552.207031 L 311.878906 553.339844 L 312.085938 554.472656 L 312.296875 555.601563 L 312.511719 556.722656 L 312.734375 557.847656 L 312.964844 558.964844 L 313.199219 560.082031 L 313.4375 561.191406 L 313.683594 562.304688 L 313.933594 563.410156 L 314.191406 564.511719 L 314.453125 565.613281 L 314.71875 566.707031 L 314.992188 567.800781 L 315.273438 568.890625 L 315.558594 569.976563 L 315.847656 571.0625 L 316.144531 572.140625 L 316.445313 573.21875 L 316.75 574.289063 L 317.0625 575.359375 L 317.382813 576.425781 L 317.703125 577.484375 L 318.03125 578.542969 L 318.367188 579.597656 L 318.707031 580.648438 L 319.050781 581.695313 L 319.402344 582.738281 L 319.757813 583.777344 L 320.117188 584.8125 L 320.480469 585.84375 L 320.851563 586.871094 L 321.230469 587.894531 L 321.609375 588.914063 L 321.996094 589.929688 L 322.390625 590.941406 L 322.785156 591.949219 L 323.1875 592.949219 L 323.597656 593.949219 L 324.007813 594.945313 L 324.425781 595.933594 L 324.847656 596.917969 L 325.273438 597.902344 L 325.707031 598.878906 L 326.144531 599.851563 L 326.585938 600.820313 L 327.03125 601.78125 L 327.484375 602.742188 L 327.941406 603.695313 L 328.402344 604.644531 L 328.867188 605.59375 L 329.339844 606.53125 L 329.816406 607.46875 L 330.296875 608.402344 L 330.78125 609.328125 L 331.269531 610.25 L 331.765625 611.167969 L 332.261719 612.078125 L 332.765625 612.988281 L 333.273438 613.890625 L 334.304688 615.679688 L 334.824219 616.566406 L 335.351563 617.449219 L 335.882813 618.328125 L 336.417969 619.203125 L 336.957031 620.070313 L 337.5 620.929688 L 338.046875 621.789063 L 338.597656 622.640625 L 339.152344 623.488281 L 340.277344 625.167969 L 341.417969 626.824219 L 341.996094 627.644531 L 342.578125 628.460938 L 343.160156 629.269531 L 343.75 630.074219 L 344.9375 631.667969 L 345.539063 632.453125 L 346.144531 633.238281 L 346.75 634.011719 L 347.363281 634.785156 L 347.976563 635.550781 L 348.597656 636.3125 L 349.21875 637.066406 L 350.476563 638.558594 L 351.109375 639.292969 L 351.75 640.027344 L 352.390625 640.75 L 353.035156 641.472656 L 353.679688 642.1875 L 354.332031 642.894531 L 354.988281 643.597656 L 355.644531 644.292969 L 356.304688 644.984375 L 356.96875 645.667969 L 357.636719 646.347656 L 358.308594 647.019531 L 358.984375 647.6875 L 359.660156 648.347656 L 360.339844 649 L 361.023438 649.648438 L 361.710938 650.292969 L 362.398438 650.929688 L 363.09375 651.558594 L 363.789063 652.183594 L 364.484375 652.800781 L 365.1875 653.414063 L 365.890625 654.019531 L 366.597656 654.617188 L 367.308594 655.210938 L 368.019531 655.796875 L 368.734375 656.378906 L 369.453125 656.953125 L 370.171875 657.519531 L 370.894531 658.082031 L 371.617188 658.636719 L 372.347656 659.1875 L 373.078125 659.730469 L 373.808594 660.265625 L 374.542969 660.792969 L 375.28125 661.316406 L 376.019531 661.835938 L 376.761719 662.34375 L 377.507813 662.847656 L 378.253906 663.34375 L 379 663.835938 L 379.75 664.320313 L 380.503906 664.796875 L 381.257813 665.269531 L 382.015625 665.734375 L 382.773438 666.191406 L 383.535156 666.644531 L 385.058594 667.527344 L 385.824219 667.957031 L 386.59375 668.382813 L 387.363281 668.800781 L 388.132813 669.210938 L 388.90625 669.617188 L 389.679688 670.015625 L 390.457031 670.40625 L 391.234375 670.789063 L 392.011719 671.167969 L 392.792969 671.539063 L 393.574219 671.902344 L 394.359375 672.261719 L 395.144531 672.613281 L 395.929688 672.957031 L 396.714844 673.292969 L 397.503906 673.625 L 398.292969 673.949219 L 399.082031 674.265625 L 399.875 674.574219 L 400.667969 674.878906 L 401.460938 675.171875 L 402.257813 675.464844 L 403.050781 675.746094 L 403.847656 676.019531 L 404.644531 676.289063 L 405.445313 676.550781 L 406.242188 676.808594 L 407.042969 677.054688 L 407.84375 677.296875 L 408.644531 677.53125 L 409.445313 677.757813 L 410.246094 677.980469 L 411.050781 678.191406 L 411.851563 678.398438 L 412.65625 678.597656 L 413.460938 678.792969 L 414.265625 678.976563 L 415.070313 679.15625 L 415.875 679.328125 L 416.679688 679.492188 L 417.484375 679.652344 L 418.292969 679.800781 L 419.097656 679.945313 L 419.902344 680.082031 L 420.707031 680.214844 L 421.515625 680.335938 L 422.320313 680.453125 L 423.125 680.5625 L 423.929688 680.664063 L 424.738281 680.761719 L 425.542969 680.847656 L 426.347656 680.929688 L 427.152344 681.003906 L 427.957031 681.074219 L 428.761719 681.132813 L 429.5625 681.1875 L 430.367188 681.234375 L 431.167969 681.273438 L 431.972656 681.304688 L 432.773438 681.332031 L 433.574219 681.351563 L 434.375 681.363281 L 435.171875 681.367188 L 435.972656 681.367188 L 436.769531 681.355469 L 437.566406 681.339844 L 438.363281 681.320313 L 439.160156 681.289063 L 439.953125 681.253906 L 441.539063 681.160156 L 442.332031 681.101563 L 443.121094 681.035156 L 443.910156 680.964844 L 444.699219 680.886719 L 445.484375 680.804688 L 446.273438 680.710938 L 447.054688 680.613281 L 447.839844 680.507813 L 448.621094 680.394531 L 449.402344 680.273438 L 450.179688 680.148438 L 450.957031 680.015625 L 451.730469 679.875 L 452.507813 679.730469 L 453.277344 679.578125 L 454.050781 679.417969 L 454.820313 679.25 L 455.585938 679.078125 L 457.117188 678.710938 L 457.878906 678.515625 L 458.636719 678.316406 L 460.152344 677.894531 L 460.90625 677.671875 L 461.65625 677.445313 L 462.40625 677.210938 L 463.15625 676.96875 L 463.902344 676.722656 L 464.644531 676.46875 L 465.386719 676.207031 L 466.125 675.941406 L 466.859375 675.667969 L 467.59375 675.386719 L 468.328125 675.097656 L 469.054688 674.804688 L 469.78125 674.503906 L 470.507813 674.199219 L 471.230469 673.886719 L 471.949219 673.566406 L 472.664063 673.238281 L 473.378906 672.90625 L 474.089844 672.566406 L 474.796875 672.222656 L 475.503906 671.871094 L 476.207031 671.511719 L 476.90625 671.148438 L 477.605469 670.777344 L 478.296875 670.398438 L 478.988281 670.015625 L 479.679688 669.625 L 480.363281 669.230469 L 481.046875 668.828125 L 481.726563 668.417969 L 482.402344 668.003906 L 483.074219 667.582031 L 483.742188 667.152344 L 484.410156 666.71875 L 485.070313 666.28125 L 485.730469 665.835938 L 486.386719 665.382813 L 487.039063 664.925781 L 487.691406 664.460938 L 488.335938 663.988281 L 488.980469 663.511719 L 489.617188 663.03125 L 490.253906 662.542969 L 490.886719 662.046875 L 491.511719 661.546875 L 492.136719 661.039063 L 492.757813 660.527344 L 493.375 660.011719 L 493.988281 659.488281 L 494.597656 658.957031 L 495.203125 658.421875 L 495.804688 657.878906 L 496.402344 657.332031 L 496.996094 656.78125 L 497.585938 656.222656 L 498.171875 655.65625 L 498.753906 655.085938 L 499.332031 654.511719 L 499.90625 653.929688 L 500.476563 653.34375 L 501.042969 652.75 L 501.601563 652.152344 L 502.160156 651.550781 L 502.714844 650.941406 L 503.261719 650.324219 L 503.804688 649.707031 L 504.34375 649.082031 L 504.878906 648.449219 L 505.410156 647.8125 L 505.9375 647.171875 L 506.460938 646.527344 L 506.976563 645.875 L 507.492188 645.214844 L 508 644.554688 L 508.503906 643.886719 L 509.003906 643.214844 L 509.496094 642.535156 L 509.988281 641.851563 L 510.472656 641.164063 L 510.953125 640.472656 L 511.429688 639.773438 L 511.898438 639.070313 L 512.363281 638.363281 L 512.824219 637.648438 L 513.28125 636.929688 L 513.734375 636.207031 L 514.179688 635.480469 L 514.621094 634.746094 L 515.058594 634.011719 L 515.488281 633.269531 L 515.914063 632.519531 L 516.335938 631.769531 L 516.753906 631.011719 L 517.164063 630.253906 L 517.570313 629.488281 L 517.972656 628.71875 L 518.367188 627.941406 L 518.757813 627.164063 L 519.144531 626.378906 L 519.523438 625.59375 L 519.898438 624.800781 L 520.265625 624.003906 L 520.628906 623.203125 L 520.988281 622.398438 L 521.34375 621.585938 L 521.691406 620.773438 L 522.03125 619.957031 L 522.367188 619.132813 L 522.699219 618.308594 L 523.027344 617.476563 L 523.347656 616.644531 L 523.660156 615.804688 L 523.96875 614.960938 L 524.273438 614.117188 L 524.570313 613.265625 L 524.863281 612.410156 L 525.148438 611.554688 L 525.429688 610.691406 L 525.707031 609.824219 L 525.976563 608.957031 L 526.238281 608.082031 L 526.496094 607.207031 L 526.75 606.324219 L 526.996094 605.441406 L 527.238281 604.554688 L 527.472656 603.664063 L 527.699219 602.765625 L 527.921875 601.871094 L 528.140625 600.96875 L 528.351563 600.0625 L 528.558594 599.15625 L 528.757813 598.242188 L 528.949219 597.328125 L 529.136719 596.410156 L 529.316406 595.488281 L 529.492188 594.5625 L 529.664063 593.636719 L 529.824219 592.707031 L 529.984375 591.769531 L 530.132813 590.835938 L 530.277344 589.894531 L 530.417969 588.953125 L 530.550781 588.007813 L 530.675781 587.058594 L 530.796875 586.105469 L 530.910156 585.152344 L 531.019531 584.195313 L 531.121094 583.234375 L 531.214844 582.273438 L 531.304688 581.308594 L 531.390625 580.339844 L 531.464844 579.371094 L 531.535156 578.398438 L 531.601563 577.425781 L 531.660156 576.445313 L 531.710938 575.464844 L 531.753906 574.484375 L 531.792969 573.5 L 531.828125 572.511719 L 531.855469 571.523438 L 531.875 570.53125 L 531.886719 569.539063 L 531.894531 568.542969 L 531.894531 567.546875 L 531.890625 566.546875 L 531.878906 565.546875 L 531.859375 564.542969 L 531.835938 563.535156 L 531.804688 562.527344 L 531.765625 561.519531 L 531.722656 560.507813 L 531.671875 559.496094 L 531.613281 558.480469 L 531.550781 557.464844 L 531.480469 556.449219 L 531.402344 555.429688 L 531.320313 554.40625 L 531.230469 553.386719 L 531.132813 552.359375 L 531.03125 551.335938 L 530.921875 550.308594 L 530.804688 549.28125 L 530.683594 548.25 L 530.554688 547.21875 L 530.421875 546.1875 L 530.277344 545.15625 L 530.128906 544.121094 L 529.976563 543.085938 L 529.8125 542.050781 L 529.644531 541.011719 L 529.46875 539.972656 L 529.289063 538.933594 L 529.101563 537.894531 L 528.90625 536.851563 L 528.707031 535.8125 L 528.5 534.769531 L 528.285156 533.726563 L 528.0625 532.679688 L 527.835938 531.636719 L 527.601563 530.589844 L 527.363281 529.546875 L 527.113281 528.5 L 526.859375 527.453125 L 526.601563 526.40625 L 526.335938 525.355469 L 526.0625 524.308594 L 525.78125 523.261719 L 525.496094 522.210938 L 525.203125 521.164063 L 524.902344 520.113281 L 524.59375 519.0625 L 524.28125 518.015625 L 523.964844 516.964844 L 523.636719 515.917969 L 523.304688 514.867188 L 522.964844 513.816406 L 522.621094 512.769531 L 521.910156 510.667969 L 521.542969 509.621094 L 521.171875 508.570313 L 520.792969 507.523438 L 520.410156 506.476563 L 520.015625 505.429688 L 519.617188 504.382813 L 519.214844 503.335938 L 518.804688 502.289063 L 518.386719 501.242188 L 517.960938 500.199219 L 517.53125 499.152344 L 517.09375 498.109375 L 516.652344 497.066406 L 516.203125 496.023438 L 515.746094 494.984375 L 515.28125 493.941406 L 514.8125 492.902344 L 514.335938 491.863281 L 513.855469 490.828125 L 513.367188 489.789063 L 512.871094 488.753906 L 512.371094 487.71875 L 511.863281 486.683594 L 511.351563 485.652344 L 510.304688 483.589844 L 509.769531 482.5625 L 509.230469 481.535156 L 508.683594 480.507813 L 508.132813 479.484375 L 507.574219 478.460938 L 507.011719 477.4375 L 506.441406 476.417969 L 505.863281 475.398438 L 504.691406 473.367188 L 504.09375 472.355469 L 503.492188 471.34375 L 502.882813 470.332031 L 502.269531 469.324219 L 501.648438 468.316406 L 501.023438 467.3125 L 500.390625 466.308594 L 499.75 465.308594 L 499.105469 464.308594 L 498.457031 463.3125 L 497.796875 462.316406 L 497.136719 461.324219 L 496.464844 460.332031 L 495.792969 459.34375 L 495.109375 458.359375 L 494.421875 457.375 L 493.730469 456.390625 L 493.03125 455.414063 L 492.328125 454.4375 L 491.617188 453.460938 L 490.898438 452.488281 L 490.175781 451.519531 L 489.449219 450.550781 L 488.714844 449.585938 L 487.972656 448.625 L 487.226563 447.664063 L 486.476563 446.710938 L 485.71875 445.753906 L 484.957031 444.804688 L 484.1875 443.855469 L 483.414063 442.910156 L 482.632813 441.964844 L 481.847656 441.027344 L 481.054688 440.089844 L 480.257813 439.15625 L 479.457031 438.222656 L 478.648438 437.296875 L 477.832031 436.371094 L 477.015625 435.449219 L 475.359375 433.613281 L 474.523438 432.703125 L 473.683594 431.792969 L 472.835938 430.886719 L 471.984375 429.984375 L 470.265625 428.1875 L 468.523438 426.40625 L 467.644531 425.519531 L 466.761719 424.636719 L 465.871094 423.761719 L 464.976563 422.886719 L 464.078125 422.011719 L 463.175781 421.144531 L 462.265625 420.28125 L 461.351563 419.421875 L 460.429688 418.5625 L 459.507813 417.710938 L 458.578125 416.863281 L 457.644531 416.015625 L 456.703125 415.175781 L 455.757813 414.335938 L 454.808594 413.503906 L 453.855469 412.675781 L 452.898438 411.847656 L 451.933594 411.027344 L 450.964844 410.210938 L 449.992188 409.394531 L 449.011719 408.585938 L 448.03125 407.78125 L 447.042969 406.980469 L 446.050781 406.183594 L 445.054688 405.390625 L 444.054688 404.601563 L 443.046875 403.816406 L 442.039063 403.039063 L 441.023438 402.261719 L 440.003906 401.492188 L 438.980469 400.726563 L 437.953125 399.960938 L 436.921875 399.203125 L 435.886719 398.453125 L 434.84375 397.703125 L 433.800781 396.957031 L 432.75 396.21875 L 431.695313 395.484375 L 430.640625 394.753906 L 429.578125 394.027344 L 428.511719 393.304688 L 427.441406 392.589844 L 426.367188 391.878906 L 425.289063 391.171875 L 424.207031 390.46875 L 423.121094 389.773438 L 422.03125 389.078125 L 420.9375 388.390625 L 419.839844 387.707031 L 418.738281 387.03125 L 417.632813 386.359375 L 416.527344 385.691406 L 415.414063 385.027344 L 414.296875 384.371094 L 413.175781 383.714844 L 412.054688 383.070313 L 410.925781 382.425781 L 409.796875 381.789063 L 408.664063 381.15625 L 407.527344 380.527344 L 406.386719 379.90625 L 405.242188 379.289063 L 404.09375 378.675781 L 402.941406 378.070313 L 401.789063 377.46875 L 400.632813 376.871094 L 399.472656 376.28125 L 398.308594 375.695313 L 395.972656 374.539063 L 393.621094 373.40625 L 392.441406 372.847656 L 391.261719 372.296875 L 390.078125 371.746094 L 388.890625 371.207031 L 387.699219 370.667969 L 386.503906 370.136719 L 385.308594 369.613281 L 384.109375 369.089844 L 382.910156 368.578125 L 381.707031 368.066406 L 380.5 367.566406 L 379.289063 367.066406 L 378.078125 366.574219 L 375.648438 365.605469 L 374.429688 365.132813 L 373.207031 364.664063 L 371.984375 364.199219 L 370.757813 363.742188 L 369.527344 363.289063 L 368.296875 362.84375 L 367.066406 362.402344 L 365.832031 361.964844 L 364.59375 361.535156 L 363.355469 361.113281 L 362.113281 360.695313 L 360.871094 360.285156 L 359.625 359.878906 L 358.378906 359.480469 L 357.132813 359.085938 L 355.878906 358.695313 L 354.628906 358.316406 L 353.375 357.9375 L 352.117188 357.566406 L 350.863281 357.203125 L 349.601563 356.84375 L 348.34375 356.492188 L 347.082031 356.144531 L 345.816406 355.804688 L 344.550781 355.472656 L 343.285156 355.144531 L 342.019531 354.820313 L 340.75 354.503906 L 339.476563 354.191406 L 338.207031 353.890625 L 336.933594 353.589844 L 335.660156 353.296875 L 334.386719 353.011719 L 333.109375 352.730469 L 331.832031 352.457031 L 330.554688 352.191406 L 329.273438 351.929688 L 327.992188 351.671875 L 326.714844 351.421875 L 325.429688 351.179688 L 324.148438 350.941406 L 322.867188 350.710938 L 320.296875 350.265625 L 319.011719 350.054688 L 317.726563 349.847656 L 316.4375 349.648438 L 315.152344 349.453125 L 313.863281 349.265625 L 312.578125 349.082031 L 311.289063 348.90625 L 310 348.738281 L 308.710938 348.574219 L 307.421875 348.417969 L 306.132813 348.265625 L 304.84375 348.121094 L 303.554688 347.984375 L 302.265625 347.851563 L 300.976563 347.726563 L 299.683594 347.605469 L 298.394531 347.492188 L 297.105469 347.382813 L 295.816406 347.28125 L 294.527344 347.1875 L 293.238281 347.097656 L 291.949219 347.015625 L 290.660156 346.9375 L 289.371094 346.867188 L 288.085938 346.804688 L 286.796875 346.746094 L 285.511719 346.695313 L 284.222656 346.648438 L 282.9375 346.609375 L 281.652344 346.578125 L 280.367188 346.550781 L 279.085938 346.527344 L 277.800781 346.515625 L 276.519531 346.503906 L 275.238281 346.503906 L 273.957031 346.507813 L 272.675781 346.515625 L 270.121094 346.554688 L 267.566406 346.617188 L 266.292969 346.660156 L 265.019531 346.707031 L 263.746094 346.761719 L 262.472656 346.820313 L 261.203125 346.882813 L 259.933594 346.957031 L 258.667969 347.035156 L 257.402344 347.117188 L 256.136719 347.207031 L 254.875 347.304688 L 253.613281 347.40625 L 252.351563 347.511719 L 249.835938 347.746094 L 247.328125 348.003906 L 246.074219 348.144531 L 244.824219 348.289063 L 243.578125 348.4375 L 242.332031 348.59375 L 241.085938 348.757813 L 239.84375 348.925781 L 238.605469 349.097656 L 237.363281 349.277344 L 236.128906 349.464844 L 234.894531 349.65625 L 233.664063 349.855469 L 232.433594 350.058594 L 231.203125 350.269531 L 229.980469 350.484375 L 228.757813 350.707031 L 227.535156 350.933594 L 226.316406 351.164063 L 223.886719 351.648438 L 222.675781 351.898438 L 221.46875 352.15625 L 220.261719 352.417969 L 219.058594 352.6875 L 217.859375 352.960938 L 216.660156 353.238281 L 215.464844 353.523438 L 214.273438 353.8125 L 213.085938 354.109375 L 211.898438 354.414063 L 210.714844 354.71875 L 208.355469 355.351563 L 207.179688 355.675781 L 206.007813 356.007813 L 204.839844 356.34375 L 203.675781 356.683594 L 202.511719 357.03125 L 201.355469 357.382813 L 200.199219 357.738281 L 199.046875 358.101563 L 197.898438 358.472656 L 196.75 358.847656 L 195.609375 359.226563 L 194.46875 359.609375 L 193.332031 360 L 192.203125 360.394531 L 191.074219 360.796875 L 189.949219 361.203125 L 188.824219 361.613281 L 187.707031 362.03125 L 186.59375 362.453125 L 185.484375 362.878906 L 184.378906 363.3125 L 183.273438 363.75 L 182.175781 364.191406 L 181.078125 364.640625 L 179.988281 365.09375 L 178.902344 365.550781 L 177.816406 366.011719 L 176.738281 366.480469 L 175.664063 366.953125 L 174.589844 367.433594 L 173.523438 367.914063 L 172.460938 368.402344 L 171.402344 368.894531 L 170.347656 369.394531 L 169.296875 369.898438 L 168.25 370.402344 L 167.207031 370.917969 L 166.171875 371.433594 L 165.136719 371.957031 L 164.109375 372.480469 L 163.085938 373.011719 L 162.0625 373.550781 L 161.050781 374.089844 L 160.039063 374.636719 L 159.03125 375.183594 L 158.03125 375.738281 L 157.03125 376.296875 L 156.039063 376.863281 L 155.050781 377.429688 L 153.089844 378.578125 L 152.117188 379.160156 L 151.148438 379.746094 L 150.183594 380.335938 L 148.269531 381.53125 L 147.320313 382.132813 L 146.375 382.742188 L 145.4375 383.351563 L 144.503906 383.96875 L 143.574219 384.589844 L 142.648438 385.210938 L 141.730469 385.839844 L 140.816406 386.472656 L 139.90625 387.109375 L 139.003906 387.75 L 138.105469 388.394531 L 137.210938 389.042969 L 136.324219 389.695313 L 135.441406 390.347656 L 134.5625 391.007813 L 133.691406 391.671875 L 132.824219 392.339844 L 131.964844 393.011719 L 131.109375 393.6875 L 130.257813 394.363281 L 129.410156 395.046875 L 127.738281 396.421875 L 126.910156 397.113281 L 126.085938 397.8125 L 125.269531 398.511719 L 124.457031 399.214844 L 123.652344 399.921875 L 122.851563 400.632813 L 122.058594 401.34375 L 121.269531 402.0625 L 120.484375 402.78125 L 119.707031 403.507813 L 118.9375 404.234375 L 118.171875 404.960938 L 117.410156 405.695313 L 116.65625 406.433594 L 115.910156 407.171875 L 115.167969 407.914063 L 114.429688 408.660156 L 113.699219 409.40625 L 112.976563 410.15625 L 112.257813 410.914063 L 111.546875 411.667969 L 110.839844 412.429688 L 110.140625 413.191406 L 109.445313 413.957031 L 108.757813 414.726563 L 108.074219 415.496094 L 107.398438 416.269531 L 106.730469 417.046875 L 106.066406 417.824219 L 105.40625 418.605469 L 104.109375 420.175781 L 103.472656 420.964844 L 102.839844 421.753906 L 102.214844 422.546875 L 101.59375 423.34375 L 100.980469 424.140625 L 100.371094 424.941406 L 99.773438 425.746094 L 99.175781 426.546875 L 98.589844 427.355469 L 98.007813 428.164063 L 97.429688 428.976563 L 96.863281 429.789063 L 96.300781 430.601563 L 95.742188 431.417969 L 95.195313 432.238281 L 94.652344 433.058594 L 94.113281 433.882813 L 93.582031 434.707031 L 93.058594 435.53125 L 92.542969 436.359375 L 92.03125 437.1875 L 91.527344 438.019531 L 91.03125 438.851563 L 90.539063 439.683594 L 90.054688 440.519531 L 89.578125 441.359375 L 89.105469 442.195313 L 88.640625 443.035156 L 88.183594 443.878906 L 87.734375 444.71875 L 87.289063 445.5625 L 86.851563 446.410156 L 86.417969 447.253906 L 85.996094 448.101563 L 85.578125 448.949219 L 85.167969 449.800781 L 84.761719 450.652344 L 84.363281 451.503906 L 83.972656 452.355469 L 83.589844 453.207031 L 83.210938 454.0625 L 82.476563 455.773438 L 82.121094 456.628906 L 81.769531 457.488281 L 81.425781 458.347656 L 81.089844 459.203125 L 80.761719 460.0625 L 80.4375 460.925781 L 80.121094 461.785156 L 79.8125 462.644531 L 79.507813 463.507813 L 79.214844 464.367188 L 78.925781 465.230469 L 78.640625 466.09375 L 78.367188 466.957031 L 78.097656 467.816406 L 77.835938 468.679688 L 77.582031 469.542969 L 77.335938 470.40625 L 77.09375 471.269531 L 76.859375 472.132813 L 76.632813 472.996094 L 76.410156 473.859375 L 76.199219 474.722656 L 75.992188 475.585938 L 75.792969 476.449219 L 75.597656 477.3125 L 75.414063 478.175781 L 75.234375 479.035156 L 75.0625 479.898438 L 74.894531 480.757813 L 74.738281 481.621094 L 74.585938 482.480469 L 74.441406 483.339844 L 74.304688 484.199219 L 74.171875 485.058594 L 74.046875 485.917969 L 73.929688 486.773438 L 73.820313 487.628906 L 73.71875 488.488281 L 73.621094 489.34375 L 73.53125 490.195313 L 73.449219 491.050781 L 73.371094 491.902344 L 73.300781 492.753906 L 73.238281 493.605469 L 73.183594 494.453125 L 73.136719 495.300781 L 73.09375 496.148438 L 73.058594 496.996094 L 73.03125 497.839844 L 73.007813 498.683594 L 72.992188 499.527344 L 72.984375 500.367188 L 72.984375 501.207031 L 72.988281 502.046875 L 73.003906 502.882813 L 73.023438 503.71875 L 73.046875 504.550781 L 73.082031 505.382813 L 73.121094 506.214844 L 73.167969 507.042969 L 73.21875 507.871094 L 73.277344 508.699219 L 73.34375 509.519531 L 73.417969 510.34375 L 73.5 511.164063 L 73.585938 511.980469 L 73.679688 512.796875 L 73.777344 513.613281 L 73.886719 514.425781 L 73.996094 515.234375 L 74.117188 516.042969 L 74.246094 516.851563 L 74.378906 517.652344 L 74.515625 518.457031 L 74.664063 519.253906 L 74.816406 520.054688 L 74.976563 520.847656 L 75.140625 521.640625 L 75.3125 522.429688 L 75.492188 523.21875 L 75.679688 524.003906 L 75.871094 524.785156 L 76.070313 525.566406 L 76.273438 526.34375 L 76.484375 527.121094 L 76.703125 527.890625 L 76.929688 528.660156 L 77.160156 529.429688 L 77.398438 530.191406 L 77.640625 530.953125 L 77.890625 531.714844 L 78.148438 532.46875 L 78.410156 533.222656 L 78.679688 533.972656 L 78.953125 534.71875 L 79.234375 535.460938 L 79.523438 536.203125 L 79.816406 536.941406 L 80.117188 537.675781 L 80.425781 538.40625 L 80.738281 539.132813 L 81.054688 539.859375 L 81.378906 540.578125 L 81.710938 541.296875 L 82.050781 542.011719 L 82.394531 542.722656 L 82.742188 543.433594 L 83.097656 544.136719 L 83.460938 544.835938 L 83.828125 545.535156 L 84.199219 546.226563 L 84.582031 546.917969 L 84.964844 547.605469 L 85.359375 548.289063 L 85.753906 548.96875 L 86.566406 550.3125 L 86.984375 550.980469 L 87.40625 551.644531 L 87.832031 552.304688 L 88.265625 552.960938 L 88.703125 553.613281 L 89.144531 554.261719 L 89.597656 554.90625 L 90.050781 555.546875 L 90.511719 556.183594 L 90.980469 556.8125 L 91.453125 557.441406 L 91.929688 558.066406 L 92.414063 558.683594 L 92.902344 559.300781 L 93.398438 559.910156 L 93.898438 560.515625 L 94.402344 561.117188 L 94.914063 561.714844 L 95.429688 562.308594 L 95.953125 562.898438 L 96.480469 563.484375 L 97.011719 564.0625 L 97.550781 564.636719 L 98.09375 565.207031 L 98.644531 565.773438 L 99.195313 566.335938 L 99.757813 566.894531 L 100.320313 567.445313 L 100.890625 567.992188 L 101.464844 568.535156 L 102.042969 569.074219 L 102.628906 569.605469 L 103.21875 570.136719 L 103.8125 570.660156 L 105.015625 571.691406 L 105.625 572.199219 L 106.242188 572.703125 L 106.859375 573.199219 L 107.484375 573.695313 L 108.113281 574.183594 L 108.746094 574.667969 L 109.386719 575.144531 L 110.027344 575.617188 L 110.675781 576.085938 L 111.328125 576.550781 L 111.988281 577.007813 L 112.648438 577.457031 L 113.316406 577.90625 L 113.984375 578.347656 L 114.660156 578.785156 L 115.339844 579.214844 L 116.027344 579.640625 L 116.714844 580.0625 L 117.40625 580.476563 L 118.105469 580.886719 L 118.804688 581.289063 L 119.511719 581.6875 L 120.222656 582.082031 L 120.9375 582.46875 L 121.65625 582.851563 L 122.378906 583.226563 L 123.105469 583.597656 L 123.835938 583.960938 L 124.570313 584.320313 L 125.308594 584.675781 L 126.054688 585.023438 L 126.800781 585.363281 L 127.550781 585.699219 L 128.304688 586.03125 L 129.0625 586.355469 L 129.824219 586.675781 L 130.59375 586.988281 L 131.363281 587.296875 L 132.136719 587.597656 L 132.914063 587.890625 L 133.691406 588.179688 L 134.476563 588.464844 L 135.265625 588.742188 L 136.054688 589.015625 L 136.851563 589.28125 L 137.648438 589.539063 L 138.453125 589.792969 L 139.257813 590.039063 L 140.066406 590.28125 L 140.875 590.519531 L 141.691406 590.746094 L 142.507813 590.96875 L 143.332031 591.1875 L 144.15625 591.398438 L 144.984375 591.601563 L 145.8125 591.800781 L 146.648438 591.992188 L 147.484375 592.179688 L 148.324219 592.359375 L 149.167969 592.53125 L 150.011719 592.699219 L 150.859375 592.859375 L 151.710938 593.015625 L 152.566406 593.164063 L 153.421875 593.304688 L 154.28125 593.441406 L 155.144531 593.570313 L 156.007813 593.695313 L 156.875 593.808594 L 157.746094 593.921875 L 158.617188 594.023438 L 159.492188 594.121094 L 160.371094 594.210938 L 161.25 594.296875 L 162.128906 594.375 L 163.015625 594.445313 L 163.902344 594.511719 L 164.789063 594.570313 L 165.679688 594.621094 L 166.574219 594.667969 L 167.46875 594.707031 L 168.367188 594.738281 L 169.265625 594.765625 L 171.070313 594.796875 L 171.972656 594.800781 L 172.882813 594.800781 L 173.789063 594.792969 L 174.699219 594.78125 L 175.613281 594.761719 L 176.527344 594.734375 L 177.441406 594.699219 L 178.359375 594.660156 L 179.277344 594.613281 L 180.199219 594.558594 L 181.121094 594.5 L 182.042969 594.433594 L 182.96875 594.359375 L 183.894531 594.277344 L 184.824219 594.191406 L 185.753906 594.097656 L 186.683594 593.996094 L 187.613281 593.890625 L 188.546875 593.777344 L 189.480469 593.65625 L 190.414063 593.53125 L 191.351563 593.394531 L 192.289063 593.253906 L 193.226563 593.109375 L 194.164063 592.953125 L 195.105469 592.792969 L 196.042969 592.625 L 196.984375 592.453125 L 197.925781 592.273438 L 198.871094 592.085938 L 199.8125 591.890625 L 200.757813 591.6875 L 201.703125 591.480469 L 202.648438 591.265625 L 203.59375 591.046875 L 204.539063 590.816406 L 205.488281 590.582031 L 206.433594 590.339844 L 207.382813 590.09375 L 208.328125 589.835938 L 209.277344 589.574219 L 210.226563 589.308594 L 211.175781 589.03125 L 212.125 588.75 L 213.074219 588.460938 L 214.023438 588.167969 L 214.972656 587.863281 L 215.917969 587.554688 L 216.867188 587.238281 L 217.816406 586.917969 L 218.765625 586.589844 L 219.714844 586.253906 L 220.664063 585.910156 L 221.613281 585.5625 L 222.558594 585.207031 L 223.507813 584.84375 L 224.453125 584.472656 L 225.398438 584.097656 L 226.347656 583.714844 L 227.292969 583.324219 L 228.238281 582.929688 L 229.183594 582.527344 L 230.125 582.117188 L 231.070313 581.703125 L 232.011719 581.28125 L 232.953125 580.851563 L 233.894531 580.414063 L 234.835938 579.972656 L 235.773438 579.523438 L 236.714844 579.070313 L 237.652344 578.605469 L 238.585938 578.136719 L 239.523438 577.664063 L 240.457031 577.179688 L 241.390625 576.691406 L 242.324219 576.199219 L 243.253906 575.695313 L 244.183594 575.1875 L 245.113281 574.675781 L 246.039063 574.152344 L 246.964844 573.625 L 247.890625 573.09375 L 248.8125 572.550781 L 249.734375 572.003906 L 250.652344 571.453125 L 251.574219 570.890625 L 252.488281 570.328125 L 253.40625 569.753906 L 254.320313 569.175781 L 255.230469 568.589844 L 256.140625 568 L 257.050781 567.402344 L 257.957031 566.796875 L 258.859375 566.1875 L 259.765625 565.570313 L 260.664063 564.945313 L 261.5625 564.316406 L 262.460938 563.679688 L 263.355469 563.039063 L 264.25 562.390625 L 265.140625 561.738281 L 266.027344 561.078125 L 266.914063 560.410156 L 267.796875 559.738281 L 268.679688 559.058594 L 269.558594 558.375 L 270.4375 557.683594 L 271.3125 556.984375 L 272.183594 556.28125 L 273.054688 555.574219 L 273.921875 554.855469 L 274.785156 554.136719 L 275.648438 553.410156 L 276.507813 552.675781 L 277.367188 551.9375 L 278.21875 551.191406 L 279.070313 550.441406 L 279.921875 549.683594 L 280.765625 548.921875 L 281.609375 548.152344 L 283.289063 546.597656 L 284.121094 545.8125 L 284.953125 545.019531 L 285.78125 544.222656 L 286.609375 543.417969 L 287.429688 542.609375 L 288.25 541.792969 L 289.066406 540.972656 L 289.878906 540.148438 L 290.691406 539.316406 L 291.496094 538.480469 L 292.300781 537.636719 L 293.101563 536.789063 L 293.894531 535.933594 L 294.691406 535.074219 L 295.480469 534.210938 L 296.265625 533.339844 L 297.046875 532.464844 L 297.828125 531.585938 L 298.605469 530.699219 L 300.144531 528.910156 L 300.910156 528.007813 L 301.671875 527.101563 L 302.429688 526.1875 L 303.183594 525.269531 L 303.933594 524.347656 L 304.679688 523.417969 L 305.421875 522.484375 L 306.160156 521.546875 L 306.894531 520.601563 L 307.625 519.652344 L 308.351563 518.699219 L 309.074219 517.742188 L 309.792969 516.777344 L 310.507813 515.808594 L 311.21875 514.835938 L 311.925781 513.859375 L 312.628906 512.875 L 313.324219 511.886719 L 314.019531 510.894531 L 314.710938 509.898438 L 316.078125 507.890625 L 316.753906 506.878906 L 317.425781 505.863281 L 318.09375 504.839844 L 318.757813 503.816406 L 319.417969 502.785156 L 320.722656 500.714844 L 321.367188 499.671875 L 322.007813 498.621094 L 322.644531 497.570313 L 323.277344 496.515625 L 323.90625 495.453125 L 324.527344 494.386719 L 325.144531 493.320313 L 325.757813 492.246094 L 326.367188 491.167969 L 326.972656 490.085938 L 327.570313 489 L 328.164063 487.910156 L 328.753906 486.816406 L 329.339844 485.71875 L 329.917969 484.617188 L 330.492188 483.511719 L 331.0625 482.402344 L 331.628906 481.289063 L 332.1875 480.167969 L 332.742188 479.046875 L 333.292969 477.921875 L 333.839844 476.792969 L 334.378906 475.660156 L 334.914063 474.523438 L 335.441406 473.386719 L 335.96875 472.242188 L 336.488281 471.09375 L 337 469.945313 L 337.507813 468.789063 L 338.011719 467.632813 L 338.511719 466.472656 L 339.003906 465.304688 L 339.492188 464.136719 L 339.976563 462.96875 L 340.453125 461.792969 L 340.925781 460.617188 L 341.390625 459.433594 L 341.851563 458.25 L 342.308594 457.0625 L 342.757813 455.875 L 343.203125 454.679688 L 343.640625 453.484375 L 344.078125 452.285156 L 344.503906 451.082031 L 344.925781 449.878906 L 345.34375 448.667969 L 345.757813 447.457031 L 346.164063 446.246094 L 346.5625 445.027344 L 346.957031 443.808594 L 347.347656 442.585938 L 347.730469 441.363281 L 348.109375 440.136719 L 348.480469 438.90625 L 348.847656 437.675781 L 349.210938 436.441406 L 349.566406 435.203125 L 349.914063 433.964844 L 350.257813 432.722656 L 350.597656 431.476563 L 350.929688 430.230469 L 351.578125 427.730469 L 351.890625 426.480469 L 352.199219 425.222656 L 352.503906 423.964844 L 352.800781 422.707031 L 353.09375 421.445313 L 353.378906 420.183594 L 353.65625 418.917969 L 353.929688 417.648438 L 354.199219 416.382813 L 354.460938 415.109375 L 354.71875 413.839844 L 354.96875 412.5625 L 355.210938 411.289063 L 355.449219 410.011719 L 355.683594 408.730469 L 356.128906 406.167969 L 356.34375 404.886719 L 356.550781 403.601563 L 356.753906 402.3125 L 356.949219 401.023438 L 357.140625 399.734375 L 357.324219 398.445313 L 357.5 397.152344 L 357.671875 395.859375 L 357.839844 394.566406 L 357.996094 393.273438 L 358.152344 391.976563 L 358.300781 390.679688 L 358.441406 389.378906 L 358.574219 388.082031 L 358.707031 386.78125 L 358.828125 385.480469 L 358.945313 384.179688 L 359.054688 382.875 L 359.160156 381.574219 L 359.257813 380.269531 L 359.351563 378.964844 L 359.4375 377.660156 L 359.519531 376.351563 L 359.59375 375.046875 L 359.660156 373.738281 L 359.722656 372.433594 L 359.777344 371.125 L 359.828125 369.816406 L 359.871094 368.507813 L 359.90625 367.199219 L 359.9375 365.890625 L 359.960938 364.582031 L 359.980469 363.273438 L 359.992188 361.964844 L 360 360.65625 L 360 359.34375 L 359.992188 358.035156 L 359.980469 356.726563 L 359.960938 355.417969 L 359.9375 354.109375 L 359.90625 352.800781 L 359.871094 351.492188 L 359.828125 350.183594 L 359.777344 348.875 L 359.722656 347.566406 L 359.660156 346.261719 L 359.59375 344.953125 L 359.519531 343.648438 L 359.4375 342.339844 L 359.351563 341.035156 L 359.257813 339.730469 L 359.160156 338.425781 L 359.054688 337.125 L 358.945313 335.820313 L 358.828125 334.519531 L 358.707031 333.21875 L 358.574219 331.917969 L 358.441406 330.621094 L 358.300781 329.320313 L 358.152344 328.023438 L 357.996094 326.726563 L 357.839844 325.433594 L 357.671875 324.140625 L 357.5 322.847656 L 357.324219 321.554688 L 357.140625 320.265625 L 356.949219 318.976563 L 356.753906 317.6875 L 356.550781 316.398438 L 356.34375 315.113281 L 356.128906 313.832031 L 355.683594 311.269531 L 355.449219 309.988281 L 355.210938 308.710938 L 354.96875 307.4375 L 354.71875 306.160156 L 354.460938 304.890625 L 354.199219 303.617188 L 353.929688 302.351563 L 353.65625 301.082031 L 353.378906 299.816406 L 353.09375 298.554688 L 352.800781 297.292969 L 352.503906 296.035156 L 352.199219 294.777344 L 351.890625 293.519531 L 351.578125 292.269531 L 350.929688 289.769531 L 350.597656 288.523438 L 350.257813 287.277344 L 349.914063 286.035156 L 349.566406 284.796875 L 349.210938 283.558594 L 348.847656 282.324219 L 348.480469 281.09375 L 348.109375 279.863281 L 347.730469 278.636719 L 347.347656 277.414063 L 346.957031 276.191406 L 346.5625 274.972656 L 346.164063 273.753906 L 345.757813 272.542969 L 345.34375 271.332031 L 344.925781 270.121094 L 344.503906 268.917969 L 344.078125 267.714844 L 343.640625 266.515625 L 343.203125 265.320313 L 342.757813 264.125 L 342.308594 262.9375 L 341.851563 261.75 L 341.390625 260.566406 L 340.925781 259.382813 L 340.453125 258.207031 L 339.976563 257.03125 L 339.492188 255.863281 L 339.003906 254.695313 L 338.511719 253.527344 L 338.011719 252.367188 L 337.507813 251.210938 L 337 250.054688 L 336.488281 248.90625 L 335.96875 247.757813 L 335.441406 246.613281 L 334.914063 245.476563 L 334.378906 244.339844 L 333.839844 243.207031 L 333.292969 242.078125 L 332.742188 240.953125 L 332.1875 239.832031 L 331.628906 238.710938 L 331.0625 237.597656 L 330.492188 236.488281 L 329.917969 235.382813 L 329.339844 234.28125 L 328.753906 233.183594 L 328.164063 232.089844 L 327.570313 231 L 326.972656 229.914063 L 326.367188 228.832031 L 325.757813 227.753906 L 325.144531 226.679688 L 324.527344 225.613281 L 323.90625 224.546875 L 323.277344 223.484375 L 322.644531 222.429688 L 322.007813 221.378906 L 321.367188 220.328125 L 320.722656 219.285156 L 319.417969 217.214844 L 318.757813 216.183594 L 318.09375 215.160156 L 317.425781 214.136719 L 316.753906 213.121094 L 316.078125 212.109375 L 314.710938 210.101563 L 314.019531 209.105469 L 313.324219 208.113281 L 312.628906 207.125 L 311.925781 206.140625 L 311.21875 205.164063 L 310.507813 204.191406 L 309.792969 203.222656 L 309.074219 202.257813 L 308.351563 201.300781 L 307.625 200.347656 L 306.894531 199.398438 L 306.160156 198.453125 L 305.421875 197.515625 L 304.679688 196.582031 L 303.933594 195.652344 L 303.183594 194.730469 L 302.429688 193.8125 L 301.671875 192.898438 L 300.910156 191.992188 L 300.144531 191.089844 L 298.605469 189.300781 L 297.828125 188.414063 L 297.046875 187.535156 L 296.265625 186.660156 L 295.480469 185.789063 L 294.691406 184.925781 L 293.894531 184.066406 L 293.101563 183.210938 L 292.300781 182.363281 L 291.496094 181.519531 L 290.691406 180.683594 L 289.878906 179.851563 L 289.066406 179.027344 L 288.25 178.207031 L 287.429688 177.390625 L 286.609375 176.582031 L 285.78125 175.777344 L 284.953125 174.980469 L 284.121094 174.1875 L 283.289063 173.402344 L 281.609375 171.847656 L 280.765625 171.078125 L 279.921875 170.316406 L 279.070313 169.558594 L 278.21875 168.808594 L 277.367188 168.0625 L 276.507813 167.324219 L 275.648438 166.589844 L 274.785156 165.863281 L 273.921875 165.144531 L 273.054688 164.425781 L 272.183594 163.71875 L 271.3125 163.015625 L 270.4375 162.316406 L 269.558594 161.625 L 268.679688 160.941406 L 267.796875 160.261719 L 266.914063 159.589844 L 266.027344 158.921875 L 265.140625 158.261719 L 264.25 157.609375 L 263.355469 156.960938 L 262.460938 156.320313 L 261.5625 155.683594 L 260.664063 155.054688 L 259.765625 154.429688 L 258.859375 153.8125 L 257.957031 153.203125 L 257.050781 152.597656 L 256.140625 152 L 255.230469 151.410156 L 254.320313 150.824219 L 253.40625 150.246094 L 252.488281 149.671875 L 251.574219 149.109375 L 250.652344 148.546875 L 249.734375 147.996094 L 248.8125 147.449219 L 247.890625 146.90625 L 246.964844 146.375 L 246.039063 145.847656 L 245.113281 145.324219 L 244.183594 144.8125 L 243.253906 144.304688 L 242.324219 143.800781 L 241.390625 143.308594 L 240.457031 142.820313 L 239.523438 142.335938 L 238.585938 141.863281 L 237.652344 141.394531 L 236.714844 140.929688 L 235.773438 140.476563 L 234.835938 140.027344 L 233.894531 139.585938 L 232.953125 139.148438 L 232.011719 138.71875 L 231.070313 138.296875 L 230.125 137.882813 L 229.183594 137.472656 L 228.238281 137.070313 L 227.292969 136.675781 L 226.347656 136.285156 L 225.398438 135.902344 L 224.453125 135.527344 L 223.507813 135.15625 L 222.558594 134.792969 L 221.613281 134.4375 L 220.664063 134.089844 L 219.714844 133.746094 L 218.765625 133.410156 L 217.816406 133.082031 L 216.867188 132.761719 L 215.917969 132.445313 L 214.972656 132.136719 L 214.023438 131.832031 L 213.074219 131.539063 L 212.125 131.25 L 211.175781 130.96875 L 210.226563 130.691406 L 209.277344 130.425781 L 208.328125 130.164063 L 207.382813 129.90625 L 206.433594 129.660156 L 205.488281 129.417969 L 204.539063 129.183594 L 203.59375 128.953125 L 202.648438 128.734375 L 201.703125 128.519531 L 200.757813 128.3125 L 199.8125 128.109375 L 198.871094 127.914063 L 197.925781 127.726563 L 196.984375 127.546875 L 196.042969 127.375 L 195.105469 127.207031 L 194.164063 127.046875 L 193.226563 126.890625 L 192.289063 126.746094 L 191.351563 126.605469 L 190.414063 126.46875 L 189.480469 126.34375 L 188.546875 126.222656 L 187.613281 126.109375 L 186.683594 126.003906 L 185.753906 125.902344 L 184.824219 125.808594 L 183.894531 125.722656 L 182.96875 125.640625 L 182.042969 125.566406 L 181.121094 125.5 L 180.199219 125.441406 L 179.277344 125.386719 L 178.359375 125.339844 L 177.441406 125.300781 L 176.527344 125.265625 L 175.613281 125.238281 L 174.699219 125.21875 L 173.789063 125.207031 L 172.882813 125.199219 L 171.972656 125.199219 L 171.070313 125.203125 L 169.265625 125.234375 L 168.367188 125.261719 L 167.46875 125.292969 L 166.574219 125.332031 L 165.679688 125.378906 L 164.789063 125.429688 L 163.902344 125.488281 L 163.015625 125.554688 L 162.128906 125.625 L 161.25 125.703125 L 160.371094 125.789063 L 159.492188 125.878906 L 158.617188 125.976563 L 157.746094 126.078125 L 156.875 126.191406 L 156.007813 126.304688 L 155.144531 126.429688 L 154.28125 126.558594 L 153.421875 126.695313 L 152.566406 126.835938 L 151.710938 126.984375 L 150.859375 127.140625 L 150.011719 127.300781 L 149.167969 127.46875 L 148.324219 127.640625 L 147.484375 127.820313 L 146.648438 128.007813 L 145.8125 128.199219 L 144.984375 128.398438 L 144.15625 128.601563 L 143.332031 128.8125 L 142.507813 129.03125 L 141.691406 129.253906 L 140.875 129.480469 L 140.066406 129.71875 L 139.257813 129.960938 L 138.453125 130.207031 L 137.648438 130.460938 L 136.851563 130.71875 L 136.054688 130.984375 L 135.265625 131.257813 L 134.476563 131.535156 L 133.691406 131.820313 L 132.914063 132.109375 L 132.136719 132.402344 L 131.363281 132.703125 L 130.59375 133.011719 L 129.824219 133.324219 L 129.0625 133.644531 L 128.304688 133.96875 L 127.550781 134.300781 L 126.800781 134.636719 L 126.054688 134.976563 L 125.308594 135.324219 L 124.570313 135.679688 L 123.835938 136.039063 L 123.105469 136.402344 L 122.378906 136.773438 L 121.65625 137.148438 L 120.9375 137.53125 L 120.222656 137.917969 L 119.511719 138.3125 L 118.804688 138.710938 L 118.105469 139.113281 L 117.40625 139.523438 L 116.714844 139.9375 L 116.027344 140.359375 L 115.339844 140.785156 L 114.660156 141.214844 L 113.984375 141.652344 L 113.316406 142.09375 L 112.648438 142.542969 L 111.988281 142.992188 L 111.328125 143.449219 L 110.675781 143.914063 L 110.027344 144.382813 L 109.386719 144.855469 L 108.746094 145.332031 L 108.113281 145.816406 L 107.484375 146.304688 L 106.859375 146.800781 L 106.242188 147.296875 L 105.625 147.800781 L 105.015625 148.308594 L 103.8125 149.339844 L 103.21875 149.863281 L 102.628906 150.394531 L 102.042969 150.925781 L 101.464844 151.464844 L 100.890625 152.007813 L 100.320313 152.554688 L 99.757813 153.105469 L 99.195313 153.664063 L 98.644531 154.226563 L 98.09375 154.792969 L 97.550781 155.363281 L 97.011719 155.9375 L 96.480469 156.515625 L 95.953125 157.101563 L 95.429688 157.691406 L 94.914063 158.285156 L 94.402344 158.882813 L 93.898438 159.484375 L 93.398438 160.089844 L 92.902344 160.699219 L 92.414063 161.316406 L 91.929688 161.933594 L 91.453125 162.558594 L 90.980469 163.1875 L 90.511719 163.816406 L 90.050781 164.453125 L 89.597656 165.09375 L 89.144531 165.738281 L 88.703125 166.386719 L 88.265625 167.039063 L 87.832031 167.695313 L 87.40625 168.355469 L 86.984375 169.019531 L 86.566406 169.6875 L 85.753906 171.03125 L 85.359375 171.710938 L 84.964844 172.394531 L 84.582031 173.082031 L 84.199219 173.773438 L 83.828125 174.464844 L 83.460938 175.164063 L 83.097656 175.863281 L 82.742188 176.566406 L 82.394531 177.277344 L 82.050781 177.988281 L 81.710938 178.703125 L 81.378906 179.421875 L 81.054688 180.140625 L 80.738281 180.867188 L 80.425781 181.59375 L 80.117188 182.324219 L 79.816406 183.058594 L 79.523438 183.796875 L 79.234375 184.539063 L 78.953125 185.28125 L 78.679688 186.027344 L 78.410156 186.777344 L 78.148438 187.53125 L 77.890625 188.285156 L 77.640625 189.046875 L 77.398438 189.808594 L 77.160156 190.570313 L 76.929688 191.339844 L 76.703125 192.109375 L 76.484375 192.878906 L 76.273438 193.65625 L 76.070313 194.433594 L 75.871094 195.214844 L 75.679688 195.996094 L 75.492188 196.78125 L 75.3125 197.570313 L 75.140625 198.359375 L 74.976563 199.152344 L 74.816406 199.945313 L 74.664063 200.746094 L 74.515625 201.542969 L 74.378906 202.347656 L 74.246094 203.148438 L 74.117188 203.957031 L 73.996094 204.765625 L 73.886719 205.574219 L 73.777344 206.386719 L 73.679688 207.203125 L 73.585938 208.019531 L 73.5 208.835938 L 73.417969 209.65625 L 73.34375 210.480469 L 73.277344 211.300781 L 73.21875 212.128906 L 73.167969 212.957031 L 73.121094 213.785156 L 73.082031 214.617188 L 73.046875 215.449219 L 73.023438 216.28125 L 73.003906 217.117188 L 72.988281 217.953125 L 72.984375 218.792969 L 72.984375 219.632813 L 72.992188 220.472656 L 73.007813 221.316406 L 73.03125 222.160156 L 73.058594 223.003906 L 73.09375 223.851563 L 73.136719 224.699219 L 73.183594 225.546875 L 73.238281 226.394531 L 73.300781 227.246094 L 73.371094 228.097656 L 73.449219 228.949219 L 73.53125 229.804688 L 73.621094 230.65625 L 73.71875 231.511719 L 73.820313 232.371094 L 73.929688 233.226563 L 74.046875 234.082031 L 74.171875 234.941406 L 74.304688 235.800781 L 74.441406 236.660156 L 74.585938 237.519531 L 74.738281 238.378906 L 74.894531 239.242188 L 75.0625 240.101563 L 75.234375 240.964844 L 75.414063 241.824219 L 75.597656 242.6875 L 75.792969 243.550781 L 75.992188 244.414063 L 76.199219 245.277344 L 76.410156 246.140625 L 76.632813 247.003906 L 76.859375 247.867188 L 77.09375 248.730469 L 77.335938 249.59375 L 77.582031 250.457031 L 77.835938 251.320313 L 78.097656 252.183594 L 78.367188 253.042969 L 78.640625 253.90625 L 78.925781 254.769531 L 79.214844 255.632813 L 79.507813 256.492188 L 79.8125 257.355469 L 80.121094 258.214844 L 80.4375 259.074219 L 80.761719 259.9375 L 81.089844 260.796875 L 81.425781 261.652344 L 81.769531 262.511719 L 82.121094 263.371094 L 82.476563 264.226563 L 83.210938 265.9375 L 83.589844 266.792969 L 83.972656 267.644531 L 84.363281 268.496094 L 84.761719 269.347656 L 85.167969 270.199219 L 85.578125 271.050781 L 85.996094 271.898438 L 86.417969 272.746094 L 86.851563 273.589844 L 87.289063 274.4375 L 87.734375 275.28125 L 88.183594 276.121094 L 88.640625 276.964844 L 89.105469 277.804688 L 89.578125 278.640625 L 90.054688 279.480469 L 90.539063 280.316406 L 91.03125 281.148438 L 91.527344 281.980469 L 92.03125 282.8125 L 92.542969 283.640625 L 93.058594 284.46875 L 93.582031 285.292969 L 94.113281 286.117188 L 94.652344 286.941406 L 95.195313 287.761719 L 95.742188 288.582031 L 96.300781 289.398438 L 96.863281 290.210938 L 97.429688 291.023438 L 98.007813 291.835938 L 98.589844 292.644531 L 99.175781 293.453125 L 99.773438 294.253906 L 100.371094 295.058594 L 100.980469 295.859375 L 101.59375 296.65625 L 102.214844 297.453125 L 102.839844 298.246094 L 103.472656 299.035156 L 104.109375 299.824219 L 105.40625 301.394531 L 106.066406 302.175781 L 106.730469 302.953125 L 107.398438 303.730469 L 108.074219 304.503906 L 108.757813 305.273438 L 109.445313 306.042969 L 110.140625 306.808594 L 110.839844 307.570313 L 111.546875 308.332031 L 112.257813 309.085938 L 112.976563 309.84375 L 113.699219 310.59375 L 114.429688 311.339844 L 115.167969 312.085938 L 115.910156 312.828125 L 116.65625 313.566406 L 117.410156 314.304688 L 118.171875 315.039063 L 118.9375 315.765625 L 119.707031 316.492188 L 120.484375 317.21875 L 121.269531 317.9375 L 122.058594 318.65625 L 122.851563 319.367188 L 123.652344 320.078125 L 124.457031 320.785156 L 125.269531 321.488281 L 126.085938 322.1875 L 126.910156 322.886719 L 127.738281 323.578125 L 129.410156 324.953125 L 130.257813 325.636719 L 131.109375 326.3125 L 131.964844 326.988281 L 132.824219 327.660156 L 133.691406 328.328125 L 134.5625 328.992188 L 135.441406 329.652344 L 136.324219 330.304688 L 137.210938 330.957031 L 138.105469 331.605469 L 139.003906 332.25 L 139.90625 332.890625 L 140.816406 333.527344 L 141.730469 334.160156 L 142.648438 334.789063 L 143.574219 335.410156 L 144.503906 336.03125 L 145.4375 336.648438 L 146.375 337.257813 L 147.320313 337.867188 L 148.269531 338.46875 L 150.183594 339.664063 L 151.148438 340.253906 L 152.117188 340.839844 L 153.089844 341.421875 L 155.050781 342.570313 L 156.039063 343.136719 L 157.03125 343.703125 L 158.03125 344.261719 L 159.03125 344.816406 L 160.039063 345.363281 L 161.050781 345.910156 L 162.0625 346.449219 L 163.085938 346.988281 L 164.109375 347.519531 L 165.136719 348.042969 L 166.171875 348.566406 L 167.207031 349.082031 L 168.25 349.597656 L 169.296875 350.101563 L 170.347656 350.605469 L 171.402344 351.105469 L 172.460938 351.597656 L 173.523438 352.085938 L 174.589844 352.566406 L 175.664063 353.046875 L 176.738281 353.519531 L 177.816406 353.988281 L 178.902344 354.449219 L 179.988281 354.90625 L 181.078125 355.359375 L 182.175781 355.808594 L 183.273438 356.25 L 184.378906 356.6875 L 185.484375 357.121094 L 186.59375 357.546875 L 187.707031 357.96875 L 188.824219 358.386719 L 189.949219 358.796875 L 191.074219 359.203125 L 192.203125 359.605469 L 193.332031 360 L 194.46875 360.390625 L 195.609375 360.773438 L 196.75 361.152344 L 197.898438 361.527344 L 199.046875 361.898438 L 200.199219 362.261719 L 201.355469 362.617188 L 202.511719 362.96875 L 203.675781 363.316406 L 204.839844 363.65625 L 206.007813 363.992188 L 207.179688 364.324219 L 208.355469 364.648438 L 210.714844 365.28125 L 211.898438 365.585938 L 213.085938 365.890625 L 214.273438 366.1875 L 215.464844 366.476563 L 216.660156 366.761719 L 217.859375 367.039063 L 219.058594 367.3125 L 220.261719 367.582031 L 221.46875 367.84375 L 222.675781 368.101563 L 223.886719 368.351563 L 226.316406 368.835938 L 227.535156 369.066406 L 228.757813 369.292969 L 229.980469 369.515625 L 231.203125 369.730469 L 232.433594 369.941406 L 233.664063 370.144531 L 234.894531 370.34375 L 236.128906 370.535156 L 237.363281 370.722656 L 238.605469 370.902344 L 239.84375 371.074219 L 241.085938 371.242188 L 242.332031 371.40625 L 243.578125 371.5625 L 244.824219 371.710938 L 246.074219 371.855469 L 247.328125 371.996094 L 249.835938 372.253906 L 252.351563 372.488281 L 253.613281 372.59375 L 254.875 372.695313 L 256.136719 372.792969 L 257.402344 372.882813 L 258.667969 372.964844 L 259.933594 373.042969 L 261.203125 373.117188 L 262.472656 373.179688 L 263.746094 373.238281 L 265.019531 373.292969 L 266.292969 373.339844 L 267.566406 373.382813 L 270.121094 373.445313 L 272.675781 373.484375 L 273.957031 373.492188 L 275.238281 373.496094 L 276.519531 373.496094 L 277.800781 373.484375 L 279.085938 373.472656 L 280.367188 373.449219 L 281.652344 373.421875 L 282.9375 373.390625 L 284.222656 373.351563 L 285.511719 373.304688 L 286.796875 373.253906 L 288.085938 373.195313 L 289.371094 373.132813 L 290.660156 373.0625 L 291.949219 372.984375 L 293.238281 372.902344 L 294.527344 372.8125 L 295.816406 372.71875 L 297.105469 372.617188 L 298.394531 372.507813 L 299.683594 372.394531 L 300.976563 372.273438 L 302.265625 372.148438 L 303.554688 372.015625 L 304.84375 371.878906 L 306.132813 371.734375 L 307.421875 371.582031 L 308.710938 371.425781 L 310 371.261719 L 311.289063 371.09375 L 312.578125 370.917969 L 313.863281 370.734375 L 315.152344 370.546875 L 316.4375 370.351563 L 317.726563 370.152344 L 319.011719 369.945313 L 320.296875 369.734375 L 322.867188 369.289063 L 324.148438 369.058594 L 325.429688 368.820313 L 326.714844 368.578125 L 327.992188 368.328125 L 329.273438 368.070313 L 330.554688 367.808594 L 331.832031 367.542969 L 333.109375 367.269531 L 334.386719 366.988281 L 335.660156 366.703125 L 336.933594 366.410156 L 338.207031 366.109375 L 339.476563 365.808594 L 340.75 365.496094 L 342.019531 365.179688 L 343.285156 364.855469 L 344.550781 364.527344 L 345.816406 364.195313 L 347.082031 363.855469 L 348.34375 363.507813 L 349.601563 363.15625 L 350.863281 362.796875 L 352.117188 362.433594 L 353.375 362.0625 L 354.628906 361.683594 L 355.878906 361.304688 L 357.132813 360.914063 L 358.378906 360.519531 L 359.625 360.121094 L 360.871094 359.714844 L 362.113281 359.304688 L 363.355469 358.886719 L 364.59375 358.464844 L 365.832031 358.035156 L 367.066406 357.597656 L 368.296875 357.15625 L 369.527344 356.710938 L 370.757813 356.257813 L 371.984375 355.800781 L 373.207031 355.335938 L 374.429688 354.867188 L 375.648438 354.394531 L 378.078125 353.425781 L 379.289063 352.933594 L 380.5 352.433594 L 381.707031 351.933594 L 382.910156 351.421875 L 384.109375 350.910156 L 385.308594 350.386719 L 386.503906 349.863281 L 387.699219 349.332031 L 388.890625 348.792969 L 390.078125 348.253906 L 391.261719 347.703125 L 392.441406 347.152344 L 393.621094 346.59375 L 395.972656 345.460938 L 398.308594 344.304688 L 399.472656 343.71875 L 400.632813 343.128906 L 401.789063 342.53125 L 402.941406 341.929688 L 404.09375 341.324219 L 405.242188 340.710938 L 406.386719 340.09375 L 407.527344 339.472656 L 408.664063 338.84375 L 409.796875 338.210938 L 410.925781 337.574219 L 412.054688 336.929688 L 413.175781 336.285156 L 414.296875 335.628906 L 415.414063 334.972656 L 416.527344 334.308594 L 417.632813 333.640625 L 418.738281 332.96875 L 419.839844 332.292969 L 420.9375 331.609375 L 422.03125 330.921875 L 423.121094 330.226563 L 424.207031 329.53125 L 425.289063 328.828125 L 426.367188 328.121094 L 427.441406 327.410156 L 428.511719 326.695313 L 429.578125 325.972656 L 430.640625 325.246094 L 431.695313 324.515625 L 432.75 323.78125 L 433.800781 323.042969 L 434.84375 322.296875 L 435.886719 321.546875 L 436.921875 320.796875 L 437.953125 320.039063 L 438.980469 319.273438 L 440.003906 318.507813 L 441.023438 317.738281 L 442.039063 316.960938 L 443.046875 316.183594 L 444.054688 315.398438 L 445.054688 314.609375 L 446.050781 313.816406 L 447.042969 313.019531 L 448.03125 312.21875 L 449.011719 311.414063 L 449.992188 310.605469 L 450.964844 309.789063 L 451.933594 308.972656 L 452.898438 308.152344 L 453.855469 307.324219 L 454.808594 306.496094 L 455.757813 305.664063 L 456.703125 304.824219 L 457.644531 303.984375 L 458.578125 303.136719 L 459.507813 302.289063 L 460.429688 301.4375 L 461.351563 300.578125 L 462.265625 299.71875 L 463.175781 298.855469 L 464.078125 297.988281 L 464.976563 297.113281 L 465.871094 296.238281 L 466.761719 295.363281 L 467.644531 294.480469 L 468.523438 293.59375 L 470.265625 291.8125 L 471.984375 290.015625 L 472.835938 289.113281 L 473.683594 288.207031 L 474.523438 287.296875 L 475.359375 286.386719 L 477.015625 284.550781 L 477.832031 283.628906 L 478.648438 282.703125 L 479.457031 281.777344 L 480.257813 280.84375 L 481.054688 279.910156 L 481.847656 278.972656 L 482.632813 278.035156 L 483.414063 277.089844 L 484.1875 276.144531 L 484.957031 275.195313 L 485.71875 274.246094 L 486.476563 273.289063 L 487.226563 272.335938 L 487.972656 271.375 L 488.714844 270.414063 L 489.449219 269.449219 L 490.175781 268.480469 L 490.898438 267.511719 L 491.617188 266.539063 L 492.328125 265.5625 L 493.03125 264.585938 L 493.730469 263.609375 L 494.421875 262.625 L 495.109375 261.640625 L 495.792969 260.65625 L 496.464844 259.667969 L 497.136719 258.675781 L 497.796875 257.683594 L 498.457031 256.6875 L 499.105469 255.691406 L 499.75 254.691406 L 500.390625 253.691406 L 501.023438 252.6875 L 501.648438 251.683594 L 502.269531 250.675781 L 502.882813 249.667969 L 503.492188 248.65625 L 504.09375 247.644531 L 504.691406 246.632813 L 505.863281 244.601563 L 506.441406 243.582031 L 507.011719 242.5625 L 507.574219 241.539063 L 508.132813 240.515625 L 508.683594 239.492188 L 509.230469 238.464844 L 509.769531 237.4375 L 510.304688 236.410156 L 511.351563 234.347656 L 511.863281 233.316406 L 512.371094 232.28125 L 512.871094 231.246094 L 513.367188 230.210938 L 513.855469 229.171875 L 514.335938 228.136719 L 514.8125 227.097656 L 515.28125 226.058594 L 515.746094 225.015625 L 516.203125 223.976563 L 516.652344 222.933594 L 517.09375 221.890625 L 517.53125 220.847656 L 517.960938 219.800781 L 518.386719 218.757813 L 518.804688 217.710938 L 519.214844 216.664063 L 519.617188 215.617188 L 520.015625 214.570313 L 520.410156 213.523438 L 520.792969 212.476563 L 521.171875 211.429688 L 521.542969 210.378906 L 521.910156 209.332031 L 522.621094 207.230469 L 522.964844 206.183594 L 523.304688 205.132813 L 523.636719 204.082031 L 523.964844 203.035156 L 524.28125 201.984375 L 524.59375 200.9375 L 524.902344 199.886719 L 525.203125 198.835938 L 525.496094 197.789063 L 525.78125 196.738281 L 526.0625 195.691406 L 526.335938 194.644531 L 526.601563 193.59375 L 526.859375 192.546875 L 527.113281 191.5 L 527.363281 190.453125 L 527.601563 189.410156 L 527.835938 188.363281 L 528.0625 187.320313 L 528.285156 186.273438 L 528.5 185.230469 L 528.707031 184.1875 L 528.90625 183.148438 L 529.101563 182.105469 L 529.289063 181.066406 L 529.46875 180.027344 L 529.644531 178.988281 L 529.8125 177.949219 L 529.976563 176.914063 L 530.128906 175.878906 L 530.277344 174.84375 L 530.421875 173.8125 L 530.554688 172.78125 L 530.683594 171.75 L 530.804688 170.71875 L 530.921875 169.691406 L 531.03125 168.664063 L 531.132813 167.640625 L 531.230469 166.613281 L 531.320313 165.59375 L 531.402344 164.570313 L 531.480469 163.550781 L 531.550781 162.535156 L 531.613281 161.519531 L 531.671875 160.503906 L 531.722656 159.492188 L 531.765625 158.480469 L 531.804688 157.472656 L 531.835938 156.464844 L 531.859375 155.457031 L 531.878906 154.453125 L 531.890625 153.453125 L 531.894531 152.453125 L 531.894531 151.457031 L 531.886719 150.460938 L 531.875 149.46875 L 531.855469 148.476563 L 531.828125 147.488281 L 531.792969 146.5 L 531.753906 145.515625 L 531.710938 144.535156 L 531.660156 143.554688 L 531.601563 142.574219 L 531.535156 141.601563 L 531.464844 140.628906 L 531.390625 139.660156 L 531.304688 138.691406 L 531.214844 137.726563 L 531.121094 136.765625 L 531.019531 135.804688 L 530.910156 134.847656 L 530.796875 133.894531 L 530.675781 132.941406 L 530.550781 131.992188 L 530.417969 131.046875 L 530.277344 130.105469 L 530.132813 129.164063 L 529.984375 128.230469 L 529.824219 127.292969 L 529.664063 126.363281 L 529.492188 125.4375 L 529.316406 124.511719 L 529.136719 123.589844 L 528.949219 122.671875 L 528.757813 121.757813 L 528.558594 120.84375 L 528.351563 119.9375 L 528.140625 119.03125 L 527.921875 118.128906 L 527.699219 117.234375 L 527.472656 116.335938 L 527.238281 115.445313 L 526.996094 114.558594 L 526.75 113.675781 L 526.496094 112.792969 L 526.238281 111.917969 L 525.976563 111.042969 L 525.707031 110.175781 L 525.429688 109.308594 L 525.148438 108.445313 L 524.863281 107.589844 L 524.570313 106.734375 L 524.273438 105.882813 L 523.96875 105.039063 L 523.660156 104.195313 L 523.347656 103.355469 L 523.027344 102.523438 L 522.699219 101.691406 L 522.367188 100.867188 L 522.03125 100.042969 L 521.691406 99.226563 L 521.34375 98.414063 L 520.988281 97.601563 L 520.628906 96.796875 L 520.265625 95.996094 L 519.898438 95.199219 L 519.523438 94.40625 L 519.144531 93.621094 L 518.757813 92.835938 L 518.367188 92.058594 L 517.972656 91.28125 L 517.570313 90.511719 L 517.164063 89.746094 L 516.753906 88.988281 L 516.335938 88.230469 L 515.914063 87.480469 L 515.488281 86.730469 L 515.058594 85.988281 L 514.621094 85.253906 L 514.179688 84.519531 L 513.734375 83.792969 L 513.28125 83.070313 L 512.824219 82.351563 L 512.363281 81.636719 L 511.898438 80.929688 L 511.429688 80.226563 L 510.953125 79.527344 L 510.472656 78.835938 L 509.988281 78.148438 L 509.496094 77.464844 L 509.003906 76.785156 L 508.503906 76.113281 L 508 75.445313 L 507.492188 74.785156 L 506.976563 74.125 L 506.460938 73.472656 L 505.9375 72.828125 L 505.410156 72.1875 L 504.878906 71.550781 L 504.34375 70.917969 L 503.804688 70.292969 L 503.261719 69.675781 L 502.714844 69.058594 L 502.160156 68.449219 L 501.601563 67.847656 L 501.042969 67.25 L 500.476563 66.65625 L 499.90625 66.070313 L 499.332031 65.488281 L 498.753906 64.914063 L 498.171875 64.34375 L 497.585938 63.777344 L 496.996094 63.21875 L 496.402344 62.667969 L 495.804688 62.121094 L 495.203125 61.578125 L 494.597656 61.042969 L 493.988281 60.511719 L 493.375 59.988281 L 492.757813 59.472656 L 492.136719 58.960938 L 491.511719 58.453125 L 490.886719 57.953125 L 490.253906 57.457031 L 489.617188 56.96875 L 488.980469 56.488281 L 488.335938 56.011719 L 487.691406 55.539063 L 487.039063 55.074219 L 486.386719 54.617188 L 485.730469 54.164063 L 485.070313 53.71875 L 484.410156 53.28125 L 483.742188 52.847656 L 483.074219 52.417969 L 482.402344 51.996094 L 481.726563 51.582031 L 481.046875 51.171875 L 480.363281 50.769531 L 479.679688 50.375 L 478.988281 49.984375 L 478.296875 49.601563 L 477.605469 49.222656 L 476.90625 48.851563 L 476.207031 48.488281 L 475.503906 48.128906 L 474.796875 47.777344 L 474.089844 47.433594 L 473.378906 47.09375 L 472.664063 46.761719 L 471.949219 46.433594 L 471.230469 46.113281 L 470.507813 45.800781 L 469.78125 45.496094 L 469.054688 45.195313 L 468.328125 44.902344 L 467.59375 44.613281 L 466.859375 44.332031 L 466.125 44.058594 L 465.386719 43.792969 L 464.644531 43.53125 L 463.902344 43.277344 L 463.15625 43.03125 L 462.40625 42.789063 L 461.65625 42.554688 L 460.90625 42.328125 L 460.152344 42.105469 L 458.636719 41.683594 L 457.878906 41.484375 L 457.117188 41.289063 L 455.585938 40.921875 L 454.820313 40.75 L 454.050781 40.582031 L 453.277344 40.421875 L 452.507813 40.269531 L 451.730469 40.125 L 450.957031 39.984375 L 450.179688 39.851563 L 449.402344 39.726563 L 448.621094 39.605469 L 447.839844 39.492188 L 447.054688 39.386719 L 446.273438 39.289063 L 445.484375 39.195313 L 444.699219 39.113281 L 443.910156 39.035156 L 443.121094 38.964844 L 442.332031 38.898438 L 441.539063 38.839844 L 439.953125 38.746094 L 439.160156 38.710938 L 438.363281 38.679688 L 437.566406 38.660156 L 436.769531 38.644531 L 435.972656 38.632813 L 435.171875 38.632813 L 434.375 38.636719 L 433.574219 38.648438 L 432.773438 38.667969 L 431.972656 38.695313 L 431.167969 38.726563 L 430.367188 38.765625 L 429.5625 38.8125 L 428.761719 38.867188 L 427.957031 38.925781 L 427.152344 38.996094 L 426.347656 39.070313 L 425.542969 39.152344 L 424.738281 39.238281 L 423.929688 39.335938 L 423.125 39.4375 L 422.320313 39.546875 L 421.515625 39.664063 L 420.707031 39.785156 L 419.902344 39.917969 L 419.097656 40.054688 L 418.292969 40.199219 L 417.484375 40.347656 L 416.679688 40.507813 L 415.875 40.671875 L 415.070313 40.84375 L 414.265625 41.023438 L 413.460938 41.207031 L 412.65625 41.402344 L 411.851563 41.601563 L 411.050781 41.808594 L 410.246094 42.019531 L 409.445313 42.242188 L 408.644531 42.46875 L 407.84375 42.703125 L 407.042969 42.945313 L 406.242188 43.191406 L 405.445313 43.449219 L 404.644531 43.710938 L 403.847656 43.980469 L 403.050781 44.253906 L 402.257813 44.535156 L 401.460938 44.828125 L 400.667969 45.121094 L 399.875 45.425781 L 399.082031 45.734375 L 398.292969 46.050781 L 397.503906 46.375 L 396.714844 46.707031 L 395.929688 47.042969 L 395.144531 47.386719 L 394.359375 47.738281 L 393.574219 48.097656 L 392.792969 48.460938 L 392.011719 48.832031 L 391.234375 49.210938 L 390.457031 49.59375 L 389.679688 49.984375 L 388.90625 50.382813 L 388.132813 50.789063 L 387.363281 51.199219 L 386.59375 51.617188 L 385.824219 52.042969 L 385.058594 52.472656 L 383.535156 53.355469 L 382.773438 53.808594 L 382.015625 54.265625 L 381.257813 54.730469 L 380.503906 55.203125 L 379.75 55.679688 L 379 56.164063 L 378.253906 56.65625 L 377.507813 57.152344 L 376.761719 57.65625 L 376.019531 58.164063 L 375.28125 58.683594 L 374.542969 59.207031 L 373.808594 59.734375 L 373.078125 60.269531 L 372.347656 60.8125 L 371.617188 61.363281 L 370.894531 61.917969 L 370.171875 62.480469 L 369.453125 63.046875 L 368.734375 63.621094 L 368.019531 64.203125 L 367.308594 64.789063 L 366.597656 65.382813 L 365.890625 65.980469 L 365.1875 66.585938 L 364.484375 67.199219 L 363.789063 67.816406 L 363.09375 68.441406 L 362.398438 69.070313 L 361.710938 69.707031 L 361.023438 70.351563 L 360.339844 71 L 359.660156 71.652344 L 358.984375 72.3125 L 358.308594 72.980469 L 357.636719 73.652344 L 356.96875 74.332031 L 356.304688 75.015625 L 355.644531 75.707031 L 354.988281 76.402344 L 354.332031 77.105469 L 353.679688 77.8125 L 353.035156 78.527344 L 352.390625 79.25 L 351.75 79.972656 L 351.109375 80.707031 L 350.476563 81.441406 L 349.21875 82.933594 L 348.597656 83.6875 L 347.976563 84.449219 L 347.363281 85.214844 L 346.75 85.988281 L 346.144531 86.761719 L 345.539063 87.546875 L 344.9375 88.332031 L 343.75 89.925781 L 343.160156 90.730469 L 342.578125 91.539063 L 341.996094 92.355469 L 341.417969 93.175781 L 340.277344 94.832031 L 339.152344 96.511719 L 338.597656 97.359375 L 338.046875 98.210938 L 337.5 99.070313 L 336.957031 99.929688 L 336.417969 100.796875 L 335.882813 101.671875 L 335.351563 102.550781 L 334.824219 103.433594 L 334.304688 104.320313 L 333.273438 106.109375 L 332.765625 107.011719 L 332.261719 107.921875 L 331.765625 108.832031 L 331.269531 109.75 L 330.78125 110.671875 L 330.296875 111.597656 L 329.816406 112.53125 L 329.339844 113.46875 L 328.867188 114.40625 L 328.402344 115.355469 L 327.941406 116.304688 L 327.484375 117.257813 L 327.03125 118.21875 L 326.585938 119.179688 L 326.144531 120.148438 L 325.707031 121.121094 L 325.273438 122.097656 L 324.847656 123.082031 L 324.425781 124.066406 L 324.007813 125.054688 L 323.597656 126.050781 L 323.1875 127.050781 L 322.785156 128.050781 L 322.390625 129.058594 L 321.996094 130.070313 L 321.609375 131.085938 L 321.230469 132.105469 L 320.851563 133.128906 L 320.480469 134.15625 L 320.117188 135.1875 L 319.757813 136.222656 L 319.402344 137.261719 L 319.050781 138.304688 L 318.707031 139.351563 L 318.367188 140.402344 L 318.03125 141.457031 L 317.703125 142.515625 L 317.382813 143.574219 L 317.0625 144.640625 L 316.75 145.710938 L 316.445313 146.78125 L 316.144531 147.859375 L 315.847656 148.9375 L 315.558594 150.023438 L 315.273438 151.109375 L 314.992188 152.199219 L 314.71875 153.292969 L 314.453125 154.386719 L 314.191406 155.488281 L 313.933594 156.589844 L 313.683594 157.695313 L 313.4375 158.808594 L 313.199219 159.917969 L 312.964844 161.035156 L 312.734375 162.152344 L 312.511719 163.277344 L 312.296875 164.398438 L 312.085938 165.527344 L 311.878906 166.660156 L 311.679688 167.792969 L 311.488281 168.929688 L 311.300781 170.066406 L 311.117188 171.210938 L 310.941406 172.355469 L 310.773438 173.5 L 310.609375 174.652344 L 310.449219 175.804688 L 310.296875 176.957031 L 310.152344 178.117188 L 310.011719 179.273438 L 309.878906 180.4375 L 309.75 181.601563 L 309.625 182.769531 L 309.511719 183.9375 L 309.398438 185.109375 L 309.296875 186.285156 L 309.199219 187.460938 L 309.105469 188.640625 L 309.019531 189.820313 L 308.9375 191 L 308.863281 192.1875 L 308.796875 193.371094 L 308.734375 194.5625 L 308.679688 195.75 L 308.628906 196.945313 L 308.585938 198.136719 L 308.550781 199.332031 L 308.519531 200.53125 L 308.492188 201.730469 L 308.472656 202.929688 L 308.460938 204.132813 L 308.453125 205.339844 L 308.453125 206.542969 L 308.460938 207.75 L 308.472656 208.960938 L 308.492188 210.171875 L 308.515625 211.382813 L 308.546875 212.59375 L 308.582031 213.808594 L 308.625 215.023438 L 308.675781 216.238281 L 308.730469 217.457031 L 308.792969 218.675781 L 308.859375 219.898438 L 308.9375 221.117188 L 309.015625 222.339844 L 309.101563 223.5625 L 309.195313 224.785156 L 309.296875 226.011719 L 309.402344 227.238281 L 309.515625 228.464844 L 309.632813 229.691406 L 309.757813 230.917969 L 309.886719 232.148438 L 310.023438 233.375 L 310.167969 234.605469 L 310.316406 235.835938 L 310.472656 237.066406 L 310.636719 238.296875 L 310.804688 239.53125 L 310.980469 240.761719 L 311.160156 241.996094 L 311.347656 243.226563 L 311.542969 244.460938 L 311.742188 245.695313 L 311.949219 246.925781 L 312.160156 248.160156 L 312.605469 250.628906 L 312.835938 251.863281 L 313.074219 253.09375 L 313.320313 254.328125 L 313.570313 255.5625 L 313.828125 256.796875 L 314.089844 258.027344 L 314.359375 259.261719 L 314.632813 260.492188 L 314.914063 261.726563 L 315.203125 262.957031 L 315.496094 264.1875 L 315.796875 265.417969 L 316.105469 266.648438 L 316.417969 267.878906 L 316.738281 269.109375 L 317.0625 270.339844 L 317.394531 271.566406 L 317.730469 272.792969 L 318.074219 274.019531 L 318.425781 275.246094 L 318.78125 276.46875 L 319.144531 277.695313 L 319.511719 278.917969 L 319.886719 280.140625 L 320.269531 281.359375 L 320.65625 282.582031 L 321.050781 283.800781 L 321.449219 285.019531 L 321.855469 286.234375 L 322.265625 287.449219 L 322.683594 288.664063 L 323.109375 289.878906 L 323.539063 291.089844 L 323.972656 292.300781 L 324.417969 293.511719 L 324.863281 294.71875 L 325.320313 295.921875 L 325.777344 297.128906 L 326.246094 298.332031 L 326.71875 299.53125 L 327.195313 300.734375 L 327.679688 301.929688 L 328.167969 303.128906 L 328.664063 304.320313 L 329.167969 305.515625 L 329.675781 306.707031 L 330.1875 307.894531 L 330.707031 309.082031 L 331.234375 310.265625 L 331.765625 311.449219 L 332.304688 312.632813 L 332.847656 313.808594 L 333.394531 314.988281 L 333.949219 316.164063 L 334.511719 317.335938 L 335.078125 318.503906 L 335.648438 319.671875 L 336.226563 320.839844 L 336.8125 322.003906 L 337.398438 323.164063 L 337.996094 324.324219 L 338.59375 325.480469 L 339.8125 327.785156 L 340.429688 328.933594 L 341.054688 330.078125 L 341.683594 331.222656 L 342.316406 332.363281 L 342.957031 333.5 L 343.601563 334.632813 L 344.253906 335.765625 L 344.910156 336.894531 L 345.570313 338.023438 L 346.238281 339.148438 L 346.910156 340.265625 L 347.589844 341.386719 L 348.273438 342.5 L 348.960938 343.613281 L 349.65625 344.71875 L 350.355469 345.824219 L 351.058594 346.925781 L 351.769531 348.027344 L 352.484375 349.121094 L 353.207031 350.214844 L 353.933594 351.304688 L 354.664063 352.390625 L 355.398438 353.472656 L 356.140625 354.550781 L 356.886719 355.625 L 357.636719 356.699219 L 358.394531 357.769531 L 359.15625 358.832031 L 359.921875 359.894531 L 360.695313 360.953125 L 361.472656 362.007813 L 362.253906 363.054688 L 363.039063 364.101563 L 363.832031 365.144531 L 364.625 366.183594 L 365.429688 367.222656 L 366.234375 368.253906 L 367.042969 369.28125 L 367.859375 370.304688 L 368.679688 371.324219 L 369.503906 372.339844 L 370.335938 373.351563 L 371.167969 374.359375 L 372.007813 375.363281 L 372.851563 376.363281 L 373.699219 377.355469 L 374.550781 378.347656 L 375.410156 379.335938 L 376.269531 380.316406 L 377.136719 381.296875 L 378.007813 382.269531 L 378.882813 383.238281 L 379.761719 384.207031 L 380.644531 385.167969 L 381.53125 386.121094 L 382.425781 387.074219 L 383.320313 388.023438 L 385.125 389.90625 L 386.035156 390.839844 L 386.949219 391.769531 L 388.785156 393.613281 L 389.710938 394.527344 L 390.640625 395.4375 L 391.574219 396.34375 L 392.511719 397.246094 L 393.453125 398.144531 L 394.398438 399.035156 L 395.347656 399.921875 L 396.300781 400.804688 L 397.257813 401.679688 L 398.21875 402.550781 L 399.179688 403.417969 L 400.148438 404.28125 L 402.09375 405.992188 L 404.054688 407.679688 L 405.042969 408.515625 L 406.03125 409.347656 L 407.023438 410.175781 L 408.019531 410.996094 L 409.019531 411.8125 L 410.023438 412.625 L 411.027344 413.429688 L 412.039063 414.230469 L 413.050781 415.023438 L 414.066406 415.8125 L 415.085938 416.597656 L 416.105469 417.378906 L 417.132813 418.152344 L 418.160156 418.917969 L 419.191406 419.683594 L 420.226563 420.441406 L 421.265625 421.191406 L 422.304688 421.9375 L 423.347656 422.679688 L 424.394531 423.414063 L 425.441406 424.144531 L 426.492188 424.867188 L 427.546875 425.585938 L 428.605469 426.300781 L 429.664063 427.007813 L 430.726563 427.707031 L 431.792969 428.40625 L 432.859375 429.09375 L 433.929688 429.78125 L 436.078125 431.132813 L 437.152344 431.796875 L 438.234375 432.460938 L 439.316406 433.117188 L 440.402344 433.765625 L 441.488281 434.410156 L 442.574219 435.046875 L 443.667969 435.679688 L 444.761719 436.304688 L 445.855469 436.925781 L 446.953125 437.542969 L 448.050781 438.148438 L 449.152344 438.753906 L 451.363281 439.941406 L 452.46875 440.523438 L 453.578125 441.101563 L 454.6875 441.675781 L 455.800781 442.242188 L 456.914063 442.800781 L 458.03125 443.355469 L 459.148438 443.90625 L 460.265625 444.449219 L 461.386719 444.984375 L 462.507813 445.511719 L 463.632813 446.039063 L 464.757813 446.554688 L 465.882813 447.066406 L 467.011719 447.570313 L 468.140625 448.070313 L 469.269531 448.5625 L 470.402344 449.050781 L 471.535156 449.53125 L 472.667969 450.007813 L 474.941406 450.9375 L 476.078125 451.390625 L 477.214844 451.839844 L 478.355469 452.285156 L 479.496094 452.722656 L 480.636719 453.152344 L 481.777344 453.574219 L 482.917969 453.992188 L 484.0625 454.40625 L 486.351563 455.210938 L 487.496094 455.601563 L 488.640625 455.988281 L 489.789063 456.367188 L 490.933594 456.742188 L 492.082031 457.109375 L 493.230469 457.46875 L 494.375 457.824219 L 495.523438 458.171875 L 496.671875 458.515625 L 497.824219 458.847656 L 498.972656 459.179688 L 500.121094 459.5 L 501.269531 459.816406 L 502.417969 460.125 L 503.570313 460.429688 L 504.71875 460.726563 L 505.867188 461.015625 L 507.015625 461.300781 L 508.164063 461.578125 L 509.316406 461.851563 L 511.613281 462.375 L 512.761719 462.625 L 513.90625 462.871094 L 515.054688 463.109375 L 516.203125 463.34375 L 517.347656 463.570313 L 518.496094 463.789063 L 519.640625 464.003906 L 520.785156 464.210938 L 521.929688 464.410156 L 523.074219 464.605469 L 524.21875 464.792969 L 525.359375 464.972656 L 526.5 465.148438 L 527.640625 465.316406 L 528.78125 465.476563 L 529.917969 465.632813 L 531.058594 465.785156 L 532.195313 465.925781 L 533.332031 466.0625 L 534.464844 466.191406 L 535.597656 466.316406 L 536.730469 466.433594 L 537.863281 466.542969 L 538.992188 466.648438 L 540.121094 466.746094 L 541.25 466.839844 L 542.375 466.925781 L 543.5 467.003906 L 544.621094 467.074219 L 545.742188 467.140625 L 546.863281 467.203125 L 549.097656 467.304688 L 550.214844 467.34375 L 551.328125 467.378906 L 552.441406 467.40625 L 553.550781 467.429688 L 554.65625 467.445313 L 555.765625 467.453125 L 556.867188 467.457031 L 557.972656 467.453125 L 559.070313 467.445313 L 560.171875 467.429688 L 561.265625 467.40625 L 562.359375 467.378906 L 563.453125 467.34375 L 564.542969 467.304688 L 565.628906 467.257813 L 566.714844 467.207031 L 567.800781 467.148438 L 568.878906 467.082031 L 569.957031 467.011719 L 571.035156 466.933594 L 572.109375 466.847656 L 573.179688 466.761719 L 574.246094 466.664063 L 575.3125 466.5625 L 576.375 466.453125 L 577.4375 466.339844 L 578.496094 466.21875 L 579.550781 466.09375 L 580.601563 465.960938 L 581.652344 465.824219 L 582.699219 465.679688 L 583.742188 465.53125 L 584.785156 465.375 L 585.820313 465.210938 L 586.855469 465.042969 L 587.890625 464.871094 L 588.917969 464.691406 L 589.945313 464.507813 L 590.964844 464.316406 L 591.984375 464.117188 L 593 463.914063 L 594.015625 463.707031 L 595.023438 463.492188 L 596.03125 463.269531 L 597.03125 463.042969 L 598.03125 462.8125 L 599.027344 462.574219 L 600.019531 462.332031 L 601.011719 462.082031 L 601.996094 461.828125 L 602.976563 461.566406 L 603.957031 461.300781 L 604.929688 461.03125 L 605.898438 460.753906 L 606.867188 460.472656 L 607.832031 460.183594 L 608.789063 459.890625 L 609.746094 459.589844 L 610.695313 459.285156 L 611.644531 458.976563 L 612.589844 458.660156 L 613.527344 458.339844 L 614.464844 458.011719 L 615.394531 457.679688 L 616.324219 457.34375 L 617.246094 457 L 618.164063 456.652344 L 619.082031 456.300781 L 619.992188 455.941406 L 620.898438 455.578125 L 621.800781 455.210938 L 622.699219 454.835938 L 623.59375 454.457031 L 624.480469 454.074219 L 625.367188 453.683594 L 626.246094 453.289063 L 627.121094 452.890625 L 627.992188 452.484375 L 628.859375 452.074219 L 629.722656 451.660156 L 630.578125 451.242188 L 631.433594 450.816406 L 632.28125 450.390625 L 633.125 449.953125 L 633.960938 449.515625 L 634.796875 449.070313 L 635.625 448.625 L 636.449219 448.171875 L 637.269531 447.710938 L 638.082031 447.25 L 638.890625 446.78125 L 639.695313 446.308594 L 640.496094 445.832031 L 641.289063 445.351563 L 642.078125 444.863281 L 642.863281 444.375 L 643.644531 443.878906 L 644.417969 443.378906 L 645.1875 442.875 L 645.949219 442.367188 L 646.707031 441.855469 L 647.460938 441.335938 L 648.210938 440.816406 L 648.953125 440.289063 L 649.6875 439.761719 L 650.421875 439.226563 L 651.148438 438.6875 L 651.867188 438.144531 L 652.585938 437.597656 L 653.292969 437.046875 L 654 436.492188 L 654.699219 435.933594 L 655.390625 435.367188 L 656.078125 434.800781 L 656.761719 434.230469 L 657.4375 433.65625 L 658.109375 433.078125 L 658.773438 432.492188 L 659.433594 431.90625 L 660.089844 431.316406 L 660.738281 430.722656 L 661.378906 430.125 L 662.015625 429.523438 L 662.644531 428.917969 L 663.269531 428.308594 L 663.890625 427.695313 L 664.503906 427.078125 L 665.109375 426.457031 L 665.710938 425.835938 L 666.308594 425.207031 L 666.894531 424.578125 L 667.480469 423.945313 L 668.058594 423.308594 L 668.628906 422.667969 L 669.195313 422.023438 L 669.753906 421.375 L 670.304688 420.726563 L 670.851563 420.074219 L 671.394531 419.417969 L 671.925781 418.757813 L 672.457031 418.09375 L 672.976563 417.429688 L 673.492188 416.761719 L 674.003906 416.089844 L 674.507813 415.414063 L 675.003906 414.734375 L 675.492188 414.054688 L 675.976563 413.371094 L 676.457031 412.6875 L 676.929688 411.996094 L 677.394531 411.304688 L 677.851563 410.613281 L 678.304688 409.914063 L 678.75 409.214844 L 679.191406 408.511719 L 679.625 407.808594 L 680.050781 407.101563 L 680.46875 406.390625 L 680.882813 405.679688 L 681.289063 404.964844 L 681.691406 404.25 L 682.085938 403.53125 L 682.472656 402.808594 L 682.851563 402.085938 L 683.226563 401.359375 L 683.59375 400.632813 L 683.957031 399.902344 L 684.308594 399.167969 L 684.65625 398.433594 L 685 397.699219 L 685.332031 396.960938 L 685.660156 396.222656 L 685.980469 395.480469 L 686.296875 394.734375 L 686.601563 393.988281 L 686.902344 393.242188 L 687.199219 392.492188 L 687.484375 391.742188 L 687.765625 390.992188 L 688.039063 390.238281 L 688.304688 389.480469 L 688.566406 388.722656 L 688.820313 387.964844 L 689.066406 387.207031 L 689.304688 386.445313 L 689.539063 385.679688 L 689.761719 384.917969 L 689.984375 384.152344 L 690.195313 383.386719 L 690.398438 382.617188 L 690.597656 381.847656 L 690.789063 381.078125 L 690.972656 380.304688 L 691.152344 379.535156 L 691.324219 378.761719 L 691.488281 377.984375 L 691.644531 377.210938 L 691.792969 376.433594 L 691.9375 375.65625 L 692.203125 374.101563 L 692.324219 373.320313 L 692.4375 372.542969 L 692.546875 371.761719 L 692.648438 370.980469 L 692.742188 370.199219 L 692.828125 369.414063 L 692.910156 368.632813 L 692.984375 367.847656 L 693.050781 367.066406 L 693.109375 366.28125 L 693.160156 365.496094 L 693.207031 364.710938 L 693.246094 363.925781 L 693.277344 363.140625 L 693.300781 362.355469 L 693.320313 361.570313 L 693.328125 360.785156 Z M 693.332031 360 "/>
  </g>
</svg>
